<svg width="24" height="26" viewBox="0 0 24 26" fill="none" xmlns="http://www.w3.org/2000/svg">
<path d="M3.25 25.25C2.5625 25.25 1.97396 25.0052 1.48438 24.5156C0.994792 24.026 0.75 23.4375 0.75 22.75V5.25C0.75 4.5625 0.994792 3.97396 1.48438 3.48438C1.97396 2.99479 2.5625 2.75 3.25 2.75H8.5C8.77083 2 9.22396 1.39583 9.85938 0.9375C10.4948 0.479167 11.2083 0.25 12 0.25C12.7917 0.25 13.5052 0.479167 14.1406 0.9375C14.776 1.39583 15.2292 2 15.5 2.75H20.75C21.4375 2.75 22.026 2.99479 22.5156 3.48438C23.0052 3.97396 23.25 4.5625 23.25 5.25V22.75C23.25 23.4375 23.0052 24.026 22.5156 24.5156C22.026 25.0052 21.4375 25.25 20.75 25.25H3.25ZM3.25 22.75H20.75V5.25H3.25V22.75ZM7 20.25H13.25C13.6042 20.25 13.901 20.1302 14.1406 19.8906C14.3802 19.651 14.5 19.3542 14.5 19C14.5 18.6458 14.3802 18.349 14.1406 18.1094C13.901 17.8698 13.6042 17.75 13.25 17.75H7C6.64583 17.75 6.34896 17.8698 6.10938 18.1094C5.86979 18.349 5.75 18.6458 5.75 19C5.75 19.3542 5.86979 19.651 6.10938 19.8906C6.34896 20.1302 6.64583 20.25 7 20.25ZM7 15.25H17C17.3542 15.25 17.651 15.1302 17.8906 14.8906C18.1302 14.651 18.25 14.3542 18.25 14C18.25 13.6458 18.1302 13.349 17.8906 13.1094C17.651 12.8698 17.3542 12.75 17 12.75H7C6.64583 12.75 6.34896 12.8698 6.10938 13.1094C5.86979 13.349 5.75 13.6458 5.75 14C5.75 14.3542 5.86979 14.651 6.10938 14.8906C6.34896 15.1302 6.64583 15.25 7 15.25ZM7 10.25H17C17.3542 10.25 17.651 10.1302 17.8906 9.89062C18.1302 9.65104 18.25 9.35417 18.25 9C18.25 8.64583 18.1302 8.34896 17.8906 8.10938C17.651 7.86979 17.3542 7.75 17 7.75H7C6.64583 7.75 6.34896 7.86979 6.10938 8.10938C5.86979 8.34896 5.75 8.64583 5.75 9C5.75 9.35417 5.86979 9.65104 6.10938 9.89062C6.34896 10.1302 6.64583 10.25 7 10.25ZM12 4.3125C12.2708 4.3125 12.4948 4.22396 12.6719 4.04688C12.849 3.86979 12.9375 3.64583 12.9375 3.375C12.9375 3.10417 12.849 2.88021 12.6719 2.70312C12.4948 2.52604 12.2708 2.4375 12 2.4375C11.7292 2.4375 11.5052 2.52604 11.3281 2.70312C11.151 2.88021 11.0625 3.10417 11.0625 3.375C11.0625 3.64583 11.151 3.86979 11.3281 4.04688C11.5052 4.22396 11.7292 4.3125 12 4.3125Z" fill="#FFF782"/>
</svg>
