<svg width="26" height="23" viewBox="0 0 26 23" fill="none" xmlns="http://www.w3.org/2000/svg">
<path d="M13 22.4061C12.7083 22.4061 12.4115 22.354 12.1094 22.2499C11.8073 22.1457 11.5417 21.979 11.3125 21.7499L9.15625 19.7811C6.94792 17.7603 4.95312 15.7551 3.17188 13.7655C1.39062 11.7759 0.5 9.58321 0.5 7.18738C0.5 5.22904 1.15625 3.59363 2.46875 2.28113C3.78125 0.968628 5.41667 0.312378 7.375 0.312378C8.47917 0.312378 9.52083 0.546753 10.5 1.0155C11.4792 1.48425 12.3125 2.12488 13 2.93738C13.6875 2.12488 14.5208 1.48425 15.5 1.0155C16.4792 0.546753 17.5208 0.312378 18.625 0.312378C20.5833 0.312378 22.2188 0.968628 23.5313 2.28113C24.8438 3.59363 25.5 5.22904 25.5 7.18738C25.5 9.58321 24.6146 11.7811 22.8438 13.7811C21.0729 15.7811 19.0625 17.7915 16.8125 19.8124L14.6875 21.7499C14.4583 21.979 14.1927 22.1457 13.8906 22.2499C13.5885 22.354 13.2917 22.4061 13 22.4061ZM11.8125 5.43738C11.2083 4.58321 10.5625 3.93217 9.875 3.48425C9.1875 3.03634 8.35417 2.81238 7.375 2.81238C6.125 2.81238 5.08333 3.22904 4.25 4.06238C3.41667 4.89571 3 5.93738 3 7.18738C3 8.27071 3.38542 9.42175 4.15625 10.6405C4.92708 11.8593 5.84896 13.0415 6.92188 14.1874C7.99479 15.3332 9.09896 16.4061 10.2344 17.4061C11.3698 18.4061 12.2917 19.229 13 19.8749C13.7083 19.229 14.6302 18.4061 15.7656 17.4061C16.901 16.4061 18.0052 15.3332 19.0781 14.1874C20.151 13.0415 21.0729 11.8593 21.8438 10.6405C22.6146 9.42175 23 8.27071 23 7.18738C23 5.93738 22.5833 4.89571 21.75 4.06238C20.9167 3.22904 19.875 2.81238 18.625 2.81238C17.6458 2.81238 16.8125 3.03634 16.125 3.48425C15.4375 3.93217 14.7917 4.58321 14.1875 5.43738C14.0417 5.64571 13.8646 5.80196 13.6563 5.90613C13.4479 6.01029 13.2292 6.06238 13 6.06238C12.7708 6.06238 12.5521 6.01029 12.3438 5.90613C12.1354 5.80196 11.9583 5.64571 11.8125 5.43738Z" fill="#FFF782"/>
</svg>
