<svg width="26" height="23" viewBox="0 0 26 23" fill="none" xmlns="http://www.w3.org/2000/svg">
<path d="M13 22.4061C12.7083 22.4061 12.4115 22.354 12.1094 22.2499C11.8073 22.1457 11.5417 21.979 11.3125 21.7499L9.15625 19.7811C6.94792 17.7603 4.95312 15.7551 3.17188 13.7655C1.39062 11.7759 0.5 9.58321 0.5 7.18738C0.5 5.22904 1.15625 3.59363 2.46875 2.28113C3.78125 0.968628 5.41667 0.312378 7.375 0.312378C8.47917 0.312378 9.52083 0.546753 10.5 1.0155C11.4792 1.48425 12.3125 2.12488 13 2.93738C13.6875 2.12488 14.5208 1.48425 15.5 1.0155C16.4792 0.546753 17.5208 0.312378 18.625 0.312378C20.5833 0.312378 22.2188 0.968628 23.5313 2.28113C24.8438 3.59363 25.5 5.22904 25.5 7.18738C25.5 9.58321 24.6146 11.7811 22.8438 13.7811C21.0729 15.7811 19.0625 17.7915 16.8125 19.8124L14.6875 21.7499C14.4583 21.979 14.1927 22.1457 13.8906 22.2499C13.5885 22.354 13.2917 22.4061 13 22.4061Z" fill="#1C1B1F"/>
</svg>
