<svg width="26" height="20" viewBox="0 0 26 20" fill="none" xmlns="http://www.w3.org/2000/svg">
<path d="M3 20C2.3125 20 1.72396 19.7552 1.23438 19.2656C0.744792 18.776 0.5 18.1875 0.5 17.5V2.5C0.5 1.8125 0.744792 1.22396 1.23438 0.734375C1.72396 0.244792 2.3125 0 3 0H23C23.6875 0 24.276 0.244792 24.7656 0.734375C25.2552 1.22396 25.5 1.8125 25.5 2.5V17.5C25.5 18.1875 25.2552 18.776 24.7656 19.2656C24.276 19.7552 23.6875 20 23 20H3ZM13 11.0312C13.1042 11.0312 13.2135 11.0156 13.3281 10.9844C13.4427 10.9531 13.5521 10.9062 13.6563 10.8438L22.5 5.3125C22.6667 5.20833 22.7917 5.07812 22.875 4.92188C22.9583 4.76562 23 4.59375 23 4.40625C23 3.98958 22.8229 3.67708 22.4688 3.46875C22.1146 3.26042 21.75 3.27083 21.375 3.5L13 8.75L4.625 3.5C4.25 3.27083 3.88542 3.26563 3.53125 3.48438C3.17708 3.70313 3 4.01042 3 4.40625C3 4.61458 3.04167 4.79688 3.125 4.95312C3.20833 5.10938 3.33333 5.22917 3.5 5.3125L12.3438 10.8438C12.4479 10.9062 12.5573 10.9531 12.6719 10.9844C12.7865 11.0156 12.8958 11.0312 13 11.0312Z" fill="#1C1B1F"/>
</svg>
