<svg width="26" height="20" viewBox="0 0 26 20" fill="none" xmlns="http://www.w3.org/2000/svg">
<path d="M3 20C2.3125 20 1.72396 19.7552 1.23438 19.2656C0.744792 18.776 0.5 18.1875 0.5 17.5V2.5C0.5 1.8125 0.744792 1.22396 1.23438 0.734375C1.72396 0.244792 2.3125 0 3 0H23C23.6875 0 24.276 0.244792 24.7656 0.734375C25.2552 1.22396 25.5 1.8125 25.5 2.5V17.5C25.5 18.1875 25.2552 18.776 24.7656 19.2656C24.276 19.7552 23.6875 20 23 20H3ZM23 5L13.6563 10.8438C13.5521 10.9062 13.4427 10.9531 13.3281 10.9844C13.2135 11.0156 13.1042 11.0312 13 11.0312C12.8958 11.0312 12.7865 11.0156 12.6719 10.9844C12.5573 10.9531 12.4479 10.9062 12.3438 10.8438L3 5V17.5H23V5ZM13 8.75L23 2.5H3L13 8.75ZM3 5.3125V3.46875V3.5V3.48438V5.3125Z" fill="#FFF782"/>
</svg>
