<svg width="18" height="32" viewBox="0 0 18 32" fill="none" xmlns="http://www.w3.org/2000/svg">
<path d="M4.61126 16L17.4446 28.8333C17.7871 29.1758 17.956 29.5925 17.9513 30.0833C17.9468 30.5741 17.7732 31.0001 17.4304 31.3612C17.0693 31.7223 16.6435 31.9029 16.1529 31.9029C15.6621 31.9029 15.2361 31.7223 14.875 31.3612L1.45834 17.9583C1.18056 17.6805 0.976813 17.3704 0.84709 17.0279C0.717646 16.6851 0.652924 16.3425 0.652924 16C0.652924 15.6575 0.717646 15.3148 0.84709 14.972C0.976813 14.6295 1.18056 14.3194 1.45834 14.0416L14.9029 0.597044C15.264 0.235933 15.6876 0.0623222 16.1738 0.0762111C16.6599 0.0900999 17.0835 0.2776 17.4446 0.638711C17.7871 0.999822 17.9629 1.42121 17.9721 1.90288C17.9815 2.38427 17.8057 2.80552 17.4446 3.16663L4.61126 16Z" fill="#FAFAF8"/>
</svg>
