<svg width="48" height="48" viewBox="0 0 48 48" fill="none" xmlns="http://www.w3.org/2000/svg">
<mask id="mask0_192_2867" style="mask-type:alpha" maskUnits="userSpaceOnUse" x="0" y="0" width="48" height="48">
<rect width="48" height="48" fill="#D9D9D9"/>
</mask>
<g mask="url(#mask0_192_2867)">
<path d="M26.822 38.581L13.5864 25.3408C13.4188 25.1732 13.2792 24.976 13.1675 24.7492C13.0558 24.5218 13 24.2721 13 24C13 23.7274 13.0558 23.4777 13.1675 23.2508C13.2792 23.024 13.4188 22.8268 13.5864 22.6592L26.822 9.41899C26.9337 9.30726 27.0666 9.2095 27.2207 9.1257C27.3754 9.0419 27.5407 9 27.7166 9C28.0696 9 28.3717 9.11508 28.623 9.34525C28.8743 9.57598 29 9.87989 29 10.257V37.743C29 38.1201 28.8704 38.4237 28.6113 38.6539C28.3527 38.8846 28.0509 39 27.7058 39C27.6192 39 27.3246 38.8603 26.822 38.581Z" fill="#7C7C7C"/>
</g>
</svg>
