<svg width="48" height="48" viewBox="0 0 48 48" fill="none" xmlns="http://www.w3.org/2000/svg">
<mask id="mask0_197_3340" style="mask-type:alpha" maskUnits="userSpaceOnUse" x="0" y="0" width="48" height="48">
<rect width="48" height="48" transform="matrix(-1 0 0 1 48 0)" fill="#D9D9D9"/>
</mask>
<g mask="url(#mask0_197_3340)">
<path d="M21.178 38.581L34.4136 25.3408C34.5812 25.1732 34.7208 24.976 34.8325 24.7492C34.9442 24.5218 35 24.2721 35 24C35 23.7274 34.9442 23.4777 34.8325 23.2508C34.7208 23.024 34.5812 22.8268 34.4136 22.6592L21.178 9.41899C21.0663 9.30726 20.9334 9.2095 20.7793 9.1257C20.6246 9.0419 20.4593 9 20.2834 9C19.9304 9 19.6283 9.11508 19.377 9.34525C19.1257 9.57598 19 9.87989 19 10.257V37.743C19 38.1201 19.1296 38.4237 19.3887 38.6539C19.6473 38.8846 19.9491 39 20.2942 39C20.3808 39 20.6754 38.8603 21.178 38.581Z" fill="#7C7C7C"/>
</g>
</svg>
