<svg width="229" height="196" viewBox="0 0 229 196" fill="none" xmlns="http://www.w3.org/2000/svg">
<path d="M87.7579 27.5115C96.0372 24.519 113.015 20.3294 114.691 27.5115C116.785 36.489 103.918 36.7884 90.1519 35.2921" stroke="#FAFAF8" stroke-width="4" stroke-linecap="round"/>
<path d="M62.7938 41.0499C56.5211 46.0772 46.0661 57.3397 54.4281 62.172C64.8806 68.2124 69.2478 58.2674 71.673 46.7387" stroke="#FAFAF8" stroke-width="4" stroke-linecap="round"/>
<path d="M76.6584 49.3145C77.2726 53.6431 78.1326 64.2614 76.6584 72.106" stroke="#FAFAF8" stroke-width="4" stroke-linecap="round"/>
<path d="M70.7006 74.1199C72.1969 74.4192 82.9699 72.0252 87.4587 74.1199C91.9475 76.2147 86.2617 79.2072 87.4587 82.4989C88.6557 85.7907 108.706 92.075 96.137 108.534" stroke="#FAFAF8" stroke-width="4" stroke-linecap="round"/>
<path d="M90.7848 41.4728C97.1122 46.5887 107.587 58.0248 98.8662 62.8425C87.9655 68.8646 83.72 58.8 81.511 47.151" stroke="#FAFAF8" stroke-width="4" stroke-linecap="round"/>
<path d="M79.3542 19.4162C81.6807 13.0054 87.8046 1.25922 93.688 5.56108C101.042 10.9384 94.4019 17.7733 86.0359 23.779" stroke="#FAFAF8" stroke-width="4" stroke-linecap="round"/>
<path d="M64.3351 23.1895C60.4094 17.6128 54.2815 5.8687 61.1762 3.50589C69.7946 0.55237 71.5995 9.90933 71.7367 20.2069" stroke="#FAFAF8" stroke-width="4" stroke-linecap="round"/>
<path d="M61.3153 34.7468C54.8497 36.9166 41.8448 39.4356 41.5493 32.1532C41.1799 23.0503 50.6626 23.9926 60.5706 26.8018" stroke="#FAFAF8" stroke-width="4" stroke-linecap="round"/>
<path d="M32.0975 114.808C32.0975 127.235 54.3043 137.308 99.06 137.308C143.816 137.308 180.097 127.235 180.097 114.808C180.097 102.382 143.816 92.3081 99.06 92.3081" stroke="#FAFAF8" stroke-width="4" stroke-linecap="round"/>
<path d="M31.0768 157.384C32.354 158.235 53.6395 165.472 78.7564 165.898" stroke="#FAFAF8" stroke-width="4" stroke-linecap="round"/>
<path d="M30.2253 156.958L20.434 162.493" stroke="#FAFAF8" stroke-width="4" stroke-linecap="round"/>
<path d="M79.182 165.898L74.9249 173.561" stroke="#FAFAF8" stroke-width="4" stroke-linecap="round"/>
<path d="M20.8597 162.918C22.1369 163.77 48.1052 173.561 73.2221 173.987" stroke="#FAFAF8" stroke-width="4" stroke-linecap="round"/>
<path d="M22.5026 185.502C23.0963 184.918 27.5047 176.098 26.3025 166.75" stroke="#FAFAF8" stroke-width="4" stroke-linecap="round"/>
<path d="M82.7624 184.65C82.2203 184.067 78.1959 175.246 79.2934 165.898" stroke="#FAFAF8" stroke-width="4" stroke-linecap="round"/>
<path d="M69.3307 193.165C69.9245 192.581 74.3328 183.76 73.1307 174.412" stroke="#FAFAF8" stroke-width="4" stroke-linecap="round"/>
<path d="M36.7858 179.542C36.2437 178.958 32.2193 170.138 33.3168 160.79" stroke="#FAFAF8" stroke-width="4" stroke-linecap="round"/>
<path d="M72.4523 174.205L59.8664 128.818" stroke="#FAFAF8" stroke-width="4" stroke-linecap="round"/>
<path d="M61.4309 126.721L14.0989 116.09" stroke="#FAFAF8" stroke-width="4" stroke-linecap="round"/>
<path d="M65.8856 150.321L18.5536 139.691" stroke="#FAFAF8" stroke-width="4" stroke-linecap="round"/>
<path d="M24.0952 161.484L11.5093 116.098" stroke="#FAFAF8" stroke-width="4" stroke-linecap="round"/>
<path d="M168.547 172.171L183 128.423" stroke="#FAFAF8" stroke-width="4" stroke-linecap="round"/>
<path d="M182.088 126.202L218.135 120.098" stroke="#FAFAF8" stroke-width="4" stroke-linecap="round"/>
<path d="M176.111 149.145L212.158 143.042" stroke="#FAFAF8" stroke-width="4" stroke-linecap="round"/>
<path d="M205.587 164.095L220.04 120.347" stroke="#FAFAF8" stroke-width="4" stroke-linecap="round"/>
<path d="M195.963 158.739C195.007 159.565 179.271 166.385 160.918 166.321" stroke="#FAFAF8" stroke-width="4" stroke-linecap="round"/>
<path d="M196.756 159.593L204.568 164.148" stroke="#FAFAF8" stroke-width="4" stroke-linecap="round"/>
<path d="M160.536 167.207L164.618 174.399" stroke="#FAFAF8" stroke-width="4" stroke-linecap="round"/>
<path d="M203.276 164.471C202.32 165.297 183.096 174.579 164.744 174.515" stroke="#FAFAF8" stroke-width="4" stroke-linecap="round"/>
<path d="M209.536 183.703C209.03 183.181 204.688 174.855 204.341 165.473" stroke="#FAFAF8" stroke-width="4" stroke-linecap="round"/>
<path d="M156.901 185.783C157.325 185.219 160.688 176.552 160.34 167.176" stroke="#FAFAF8" stroke-width="4" stroke-linecap="round"/>
<path d="M171.224 193.303C170.718 192.78 166.376 184.455 166.028 175.072" stroke="#FAFAF8" stroke-width="4" stroke-linecap="round"/>
<path d="M194.947 180.138C195.264 179.508 197.029 170.38 195.016 161.216" stroke="#FAFAF8" stroke-width="4" stroke-linecap="round"/>
<path d="M108.097 140.308V159.308" stroke="#FAFAF8" stroke-width="4" stroke-linecap="round"/>
<path d="M108.097 159.308C112.084 159.308 115.611 159.85 118.072 160.67C119.313 161.084 120.172 161.532 120.68 161.933C120.901 162.107 121.009 162.233 121.061 162.308C121.009 162.383 120.901 162.51 120.68 162.683C120.172 163.084 119.313 163.532 118.072 163.946C115.611 164.766 112.084 165.308 108.097 165.308C104.11 165.308 100.583 164.766 98.1229 163.946C96.8824 163.532 96.0229 163.084 95.5145 162.683C95.2937 162.509 95.1849 162.383 95.1326 162.308C95.1849 162.233 95.2937 162.107 95.5145 161.933C96.0229 161.532 96.8824 161.084 98.1229 160.67C100.583 159.85 104.11 159.308 108.097 159.308Z" stroke="#FAFAF8" stroke-width="4"/>
<g filter="url(#filter0_d_332_3672)">
<circle cx="75" cy="33" r="8" fill="#FFF782"/>
</g>
<defs>
<filter id="filter0_d_332_3672" x="64.0561" y="24.5794" width="21.8879" height="21.8879" filterUnits="userSpaceOnUse" color-interpolation-filters="sRGB">
<feFlood flood-opacity="0" result="BackgroundImageFix"/>
<feColorMatrix in="SourceAlpha" type="matrix" values="0 0 0 0 0 0 0 0 0 0 0 0 0 0 0 0 0 0 127 0" result="hardAlpha"/>
<feOffset dy="2.52336"/>
<feGaussianBlur stdDeviation="1.47196"/>
<feComposite in2="hardAlpha" operator="out"/>
<feColorMatrix type="matrix" values="0 0 0 0 1 0 0 0 0 0.968627 0 0 0 0 0.509804 0 0 0 0.2 0"/>
<feBlend mode="normal" in2="BackgroundImageFix" result="effect1_dropShadow_332_3672"/>
<feBlend mode="normal" in="SourceGraphic" in2="effect1_dropShadow_332_3672" result="shape"/>
</filter>
</defs>
</svg>
