<svg width="90" height="90" viewBox="0 0 90 90" fill="none" xmlns="http://www.w3.org/2000/svg">
<rect width="90" height="90" rx="45" fill="#7C7C7C"/>
<mask id="mask0_123_5793" style="mask-type:alpha" maskUnits="userSpaceOnUse" x="9" y="9" width="73" height="73">
<rect x="9.08179" y="9.08183" width="72.6545" height="72.6545" fill="#D9D9D9"/>
</mask>
<g mask="url(#mask0_123_5793)">
<path d="M45 50.8275C42.8304 50.8275 41.0141 50.0475 39.5509 48.4874C38.0877 46.9279 37.3561 45.0338 37.3561 42.8052V23.8091C37.3561 21.7066 38.0988 19.9198 39.5842 18.4485C41.0696 16.9768 42.8733 16.2409 44.9955 16.2409C47.1176 16.2409 48.9228 16.9768 50.4112 18.4485C51.8997 19.9198 52.6439 21.7066 52.6439 23.8091V42.8052C52.6439 45.0338 51.9123 46.9279 50.4491 48.4874C48.9859 50.0475 47.1695 50.8275 45 50.8275ZM42.7295 73.7591V63.4664C37.3814 62.9114 32.8909 60.6661 29.2582 56.7307C25.6254 52.7952 23.8091 48.1534 23.8091 42.8052H28.35C28.35 47.3966 29.9719 51.2564 33.2156 54.3845C36.4593 57.5127 40.3821 59.0768 44.9841 59.0768C49.5861 59.0768 53.5142 57.5127 56.7685 54.3845C60.0228 51.2564 61.65 47.3966 61.65 42.8052H66.1909C66.1909 48.1534 64.3745 52.7952 60.7418 56.7307C57.1091 60.6661 52.6186 62.9114 47.2704 63.4664V73.7591H42.7295Z" fill="#090909"/>
</g>
</svg>
