<svg width="156" height="48" viewBox="0 0 156 48" fill="none" xmlns="http://www.w3.org/2000/svg">
<g clip-path="url(#clip0_520_6627)">
<path d="M12.8953 38.9106C11.5831 38.9106 10.3502 38.6598 9.19712 38.1576C8.04408 37.6553 7.03286 36.9659 6.16509 36.0888C5.29677 35.2122 4.61429 34.1907 4.1171 33.0259C3.61991 31.8612 3.37159 30.6157 3.37159 29.2902V22.9027H0.72644V17.4395H3.37105V8.84216H8.77926V17.439H17.0114V22.9021H8.77926V29.2896C8.77926 29.8654 8.88522 30.4044 9.09714 30.9067C9.30906 31.4089 9.60085 31.8475 9.97197 32.2224C10.3431 32.5972 10.7805 32.8953 11.2842 33.116C11.7879 33.3372 12.3248 33.4475 12.8948 33.4475H17.0109V38.9106H12.8948H12.8953Z" fill="#E6E6E6"/>
<path d="M24.6676 38.9106H19.2392V8.84216H24.6676V18.343C25.3169 17.8479 25.9863 17.496 26.6759 17.2886C27.3649 17.0811 28.068 16.9773 28.7836 16.9773C30.0959 16.9773 31.3288 17.2282 32.4818 17.7304C33.6349 18.2327 34.639 18.9226 35.4943 19.7992C36.3496 20.6763 37.0256 21.7006 37.5227 22.8725C38.0199 24.0444 38.2683 25.2931 38.2683 26.6187V38.9112H32.8003V26.6187H32.8399C32.8399 26.0561 32.7334 25.5242 32.5221 25.0219C32.3096 24.5197 32.0183 24.0811 31.6472 23.7062C31.2761 23.3313 30.8452 23.0366 30.3545 22.8225C29.8639 22.6085 29.3406 22.5014 28.7836 22.5014C28.2267 22.5014 27.6768 22.609 27.1731 22.8225C26.6694 23.0371 26.2319 23.3313 25.8608 23.7062C25.4897 24.0811 25.1979 24.5197 24.986 25.0219C24.7735 25.5242 24.6681 26.0566 24.6681 26.6187V38.9112L24.6676 38.9106Z" fill="#E6E6E6"/>
<path d="M46.7792 38.9107H41.3112V17.3989H46.7792V38.9107Z" fill="#E6E6E6"/>
<path d="M55.5291 38.9107H50.1008V17.3989H51.4131L53.2024 19.488C54.0772 18.6844 55.0678 18.0653 56.1752 17.63C57.2821 17.1953 58.4384 16.9774 59.6452 16.9774C60.9444 16.9774 62.1703 17.2282 63.3238 17.7304C64.4774 18.2327 65.4843 18.9226 66.3461 19.7992C67.2073 20.6764 67.8871 21.7006 68.3843 22.8725C68.8815 24.0444 69.1298 25.2931 69.1298 26.6187V38.9112H63.7015V26.6187C63.7015 26.0561 63.595 25.5242 63.3836 25.022C63.1712 24.5197 62.8799 24.0812 62.5088 23.7063C62.1377 23.3314 61.7068 23.0366 61.2161 22.8225C60.7254 22.6085 60.2022 22.5014 59.6452 22.5014C59.0882 22.5014 58.5383 22.609 58.0346 22.8225C57.5309 23.0372 57.0935 23.3314 56.7224 23.7063C56.3512 24.0812 56.0595 24.5197 55.8475 25.022C55.6351 25.5242 55.5297 26.0566 55.5297 26.6187L55.5291 38.9107Z" fill="#E6E6E6"/>
<path d="M77.6407 38.9106H72.1727V8.84216H77.6407V27.8032L85.7332 17.439H91.9766L84.9176 26.3975L91.9766 38.9112H85.7332L81.4183 31.0977L77.6402 36.1596V38.9112L77.6407 38.9106Z" fill="#E6E6E6"/>
<path d="M101.124 33.6484C101.336 33.7154 101.548 33.7587 101.761 33.779C101.972 33.7993 102.184 33.8092 102.397 33.8092C102.927 33.8092 103.437 33.7357 103.928 33.588C104.418 33.4409 104.879 33.2301 105.31 32.9551C105.74 32.6807 106.125 32.3459 106.463 31.9507C106.801 31.556 107.076 31.1169 107.288 30.635L111.265 34.6721C110.762 35.395 110.182 36.0449 109.525 36.6207C108.869 37.1965 108.16 37.685 107.398 38.0868C106.636 38.4886 105.834 38.7932 104.992 39.0007C104.15 39.2082 103.285 39.3119 102.397 39.3119C100.899 39.3119 99.4909 39.0309 98.1721 38.4682C96.8528 37.9056 95.6998 37.1224 94.7125 36.1184C93.7246 35.1139 92.9459 33.919 92.3759 32.533C91.8059 31.1471 91.5212 29.6239 91.5212 27.9635C91.5212 26.3031 91.8059 24.7096 92.3759 23.3034C92.9459 21.8971 93.7246 20.6989 94.7125 19.7081C95.6998 18.7174 96.8534 17.9473 98.1721 17.3984C99.4909 16.8495 100.899 16.575 102.397 16.575C103.285 16.575 104.154 16.6826 105.002 16.8961C105.851 17.1107 106.656 17.4181 107.418 17.8199C108.181 18.2217 108.893 18.7135 109.556 19.2964C110.219 19.8788 110.802 20.5314 111.306 21.2549L101.125 33.6478L101.124 33.6484ZM103.908 22.3401C103.656 22.2467 103.408 22.1864 103.162 22.1595C102.917 22.1326 102.662 22.1194 102.397 22.1194C101.654 22.1194 100.955 22.2566 100.299 22.5311C99.6425 22.8055 99.0725 23.1974 98.5889 23.7063C98.1048 24.2151 97.7238 24.8282 97.4456 25.544C97.1674 26.2603 97.0283 27.0671 97.0283 27.964C97.0283 28.1649 97.0381 28.3927 97.0582 28.6469C97.0783 28.9016 97.1109 29.159 97.1576 29.4203C97.2038 29.6815 97.2603 29.9324 97.3266 30.1733C97.3929 30.4143 97.4788 30.6289 97.5853 30.8161L103.909 22.3401H103.908Z" fill="#E6E6E6"/>
<path d="M121.526 33.6484C121.738 33.7154 121.95 33.7587 122.162 33.779C122.374 33.7993 122.586 33.8092 122.798 33.8092C123.328 33.8092 123.839 33.7357 124.33 33.588C124.82 33.4409 125.281 33.2301 125.711 32.9551C126.142 32.6807 126.527 32.3459 126.865 31.9507C127.203 31.556 127.477 31.1169 127.69 30.635L131.667 34.6721C131.163 35.395 130.583 36.0449 129.927 36.6207C129.271 37.1965 128.562 37.685 127.8 38.0868C127.037 38.4886 126.235 38.7932 125.394 39.0007C124.551 39.2082 123.687 39.3119 122.799 39.3119C121.301 39.3119 119.892 39.0309 118.574 38.4682C117.254 37.9056 116.101 37.1224 115.114 36.1184C114.126 35.1139 113.348 33.919 112.778 32.533C112.208 31.1471 111.923 29.6239 111.923 27.9635C111.923 26.3031 112.208 24.7096 112.778 23.3034C113.348 21.8971 114.126 20.6989 115.114 19.7081C116.101 18.7174 117.255 17.9473 118.574 17.3984C119.892 16.8495 121.301 16.575 122.799 16.575C123.687 16.575 124.555 16.6826 125.404 16.8961C126.252 17.1107 127.057 17.4181 127.82 17.8199C128.582 18.2217 129.295 18.7135 129.957 19.2964C130.62 19.8788 131.203 20.5314 131.707 21.2549L121.526 33.6478L121.526 33.6484ZM124.31 22.3401C124.057 22.2467 123.809 22.1864 123.564 22.1595C123.318 22.1326 123.064 22.1194 122.798 22.1194C122.056 22.1194 121.357 22.2566 120.7 22.5311C120.044 22.8055 119.474 23.1974 118.99 23.7063C118.506 24.2151 118.125 24.8282 117.847 25.544C117.569 26.2603 117.43 27.0671 117.43 27.964C117.43 28.1649 117.44 28.3927 117.46 28.6469C117.48 28.9016 117.512 29.159 117.559 29.4203C117.605 29.6815 117.662 29.9324 117.728 30.1733C117.795 30.4143 117.88 30.6289 117.987 30.8161L124.31 22.3401H124.31Z" fill="#E6E6E6"/>
<path d="M139.084 47.1057H133.616V17.3989H134.928L137.096 19.9903C137.586 19.5215 138.123 19.0797 138.706 18.6647C139.289 18.2497 139.896 17.8913 140.526 17.59C141.155 17.2886 141.808 17.0509 142.484 16.8769C143.16 16.7029 143.842 16.6157 144.532 16.6157C146.03 16.6157 147.438 16.8868 148.757 17.4291C150.076 17.9714 151.229 18.7382 152.217 19.729C153.204 20.7203 153.983 21.9152 154.553 23.3144C155.123 24.7141 155.408 26.2636 155.408 27.9641C155.408 29.6645 155.123 31.3217 154.553 32.7345C153.983 34.1474 153.204 35.3456 152.217 36.3298C151.229 37.3139 150.076 38.067 148.757 38.5896C147.438 39.1116 146.029 39.3729 144.532 39.3729C144.055 39.3729 143.58 39.3191 143.11 39.212C142.64 39.1044 142.176 38.9612 141.718 38.78C141.261 38.5995 140.81 38.3953 140.366 38.1675C139.922 37.9397 139.495 37.7053 139.084 37.4643V47.1057ZM149.961 27.9641C149.961 27.0535 149.818 26.2367 149.533 25.5138C149.248 24.7909 148.86 24.1783 148.37 23.6761C147.879 23.1739 147.303 22.7891 146.64 22.5212C145.977 22.2534 145.274 22.1194 144.532 22.1194C143.79 22.1194 143.09 22.2534 142.434 22.5212C141.777 22.7891 141.204 23.1739 140.714 23.6761C140.223 24.1783 139.836 24.7909 139.551 25.5138C139.265 26.2367 139.123 27.054 139.123 27.9641C139.123 28.8741 139.265 29.6311 139.551 30.3545C139.835 31.0774 140.223 31.6938 140.714 32.2026C141.204 32.7115 141.778 33.1067 142.434 33.3877C143.09 33.6687 143.789 33.8093 144.532 33.8093C145.275 33.8093 145.977 33.6687 146.64 33.3877C147.303 33.1067 147.879 32.7115 148.37 32.2026C148.86 31.6938 149.248 31.078 149.533 30.3545C149.818 29.6316 149.961 28.8346 149.961 27.9641Z" fill="#E6E6E6"/>
</g>
<g filter="url(#filter0_d_520_6627)">
<circle cx="6.91999" cy="6.91999" r="6.91999" transform="matrix(1 0 0 -1 36.5476 14.5409)" fill="#FFF782"/>
</g>
<defs>
<filter id="filter0_d_520_6627" x="33.7515" y="0.301478" width="19.4323" height="19.4323" filterUnits="userSpaceOnUse" color-interpolation-filters="sRGB">
<feFlood flood-opacity="0" result="BackgroundImageFix"/>
<feColorMatrix in="SourceAlpha" type="matrix" values="0 0 0 0 0 0 0 0 0 0 0 0 0 0 0 0 0 0 127 0" result="hardAlpha"/>
<feOffset dy="2.3967"/>
<feGaussianBlur stdDeviation="1.39807"/>
<feComposite in2="hardAlpha" operator="out"/>
<feColorMatrix type="matrix" values="0 0 0 0 1 0 0 0 0 0.968627 0 0 0 0 0.509804 0 0 0 0.2 0"/>
<feBlend mode="normal" in2="BackgroundImageFix" result="effect1_dropShadow_520_6627"/>
<feBlend mode="normal" in="SourceGraphic" in2="effect1_dropShadow_520_6627" result="shape"/>
</filter>
<clipPath id="clip0_520_6627">
<rect width="154.682" height="38.2635" fill="white" transform="translate(0.72644 8.84216)"/>
</clipPath>
</defs>
</svg>
