<svg width="88" height="88" viewBox="0 0 88 88" fill="none" xmlns="http://www.w3.org/2000/svg">
<rect width="88" height="88" rx="44" fill="#E6E6E6"/>
<path d="M48.6675 30.4562C47.3523 29.8421 40.7768 28 38.1467 28C36.8316 36.5967 44.7222 37.8248 47.3524 36.5967C49.4565 35.6142 49.1058 32.0936 48.6675 30.4562Z" fill="#2D2D29"/>
<path d="M34.6675 32.4562C33.3523 31.8421 26.7768 30 24.1467 30C22.8316 38.5967 30.7222 39.8248 33.3524 38.5967C35.4565 37.6142 35.1058 34.0936 34.6675 32.4562Z" fill="#2D2D29"/>
<path d="M47.7033 34.6565C48.5781 36.7018 50.8821 40.3505 53.0996 38.5829C55.8715 36.3734 48.1904 30.5284 47.7033 34.6565Z" fill="#7C7C7C"/>
<path d="M36.223 43.0367C32.3452 42.6039 32.7606 46.1027 33.4531 47.9062C33.9046 50.0705 39.6854 48.4473 44.5327 47.9062C49.38 47.3652 41.0704 43.5778 36.223 43.0367Z" fill="#2D2D29"/>
</svg>
