<svg width="185" height="185" viewBox="0 0 185 185" fill="none" xmlns="http://www.w3.org/2000/svg">
<g filter="url(#filter0_i_123_6815)">
<g clip-path="url(#clip0_123_6815)">
<rect width="185" height="185" rx="92.5" fill="#E6E6E6"/>
<path d="M50.0644 74.834C50.8613 74.834 51.5702 75.0654 52.1913 75.5283C52.8124 75.9854 53.3017 76.6387 53.6591 77.4883C54.0165 78.332 54.1952 79.3164 54.1952 80.4414C54.1952 81.5723 54.0165 82.5625 53.6591 83.4121C53.3017 84.2559 52.8095 84.9092 52.1825 85.3721C51.5614 85.835 50.8554 86.0664 50.0644 86.0664C49.2675 86.0664 48.5556 85.835 47.9286 85.3721C47.3017 84.9092 46.8124 84.2559 46.4609 83.4121C46.1093 82.5625 45.9335 81.5723 45.9335 80.4414C45.9335 79.3164 46.1093 78.332 46.4609 77.4883C46.8124 76.6387 47.3017 75.9854 47.9286 75.5283C48.5556 75.0654 49.2675 74.834 50.0644 74.834ZM50.0644 76.5918C49.6191 76.5859 49.2236 76.7383 48.8779 77.0488C48.538 77.3594 48.2743 77.8047 48.0868 78.3848C47.9052 78.959 47.8144 79.6445 47.8144 80.4414C47.8144 81.2383 47.9052 81.9297 48.0868 82.5156C48.2743 83.0957 48.5409 83.5381 48.8866 83.8428C49.2323 84.1416 49.6249 84.291 50.0644 84.291C50.5097 84.291 50.9023 84.1416 51.2421 83.8428C51.5878 83.5381 51.8515 83.0957 52.0331 82.5156C52.2148 81.9297 52.3056 81.2383 52.3056 80.4414C52.3056 79.6387 52.2148 78.9502 52.0331 78.376C51.8515 77.7959 51.5878 77.3535 51.2421 77.0488C50.9023 76.7383 50.5097 76.5859 50.0644 76.5918ZM58.2382 89.5469H56.287V73.6738H58.2382V89.5469ZM60.6904 81.4258H57.7988V79.7822H60.6904V81.4258ZM62.5452 84.3086C63.6585 84.3145 64.6516 84.2939 65.5247 84.2471C66.3977 84.1943 67.3089 84.0947 68.2581 83.9482L68.4075 85.5039C67.4173 85.6738 66.471 85.7881 65.5686 85.8467C64.6722 85.9053 63.6643 85.9346 62.5452 85.9346H61.4641V84.3086H62.5452ZM67.4583 81.2148H63.3538V84.915H61.4641V79.6416H65.5774V76.8818H61.4378V75.2822H67.4583V81.2148ZM74.6565 89.5469H72.8108V73.6738H74.6565V89.5469ZM73.2679 81.3555H70.4466V79.7822H73.2679V81.3555ZM71.0091 88.7646H69.2249V73.9727H71.0091V88.7646ZM81.3454 74.7637C82.1774 74.7637 82.9245 74.9277 83.5866 75.2559C84.2487 75.584 84.7672 76.041 85.1422 76.627C85.5172 77.207 85.7047 77.8691 85.7047 78.6133C85.7047 79.3574 85.5172 80.0225 85.1422 80.6084C84.7672 81.1885 84.2487 81.6426 83.5866 81.9707C82.9303 82.2988 82.1832 82.4629 81.3454 82.4629C80.525 82.4629 79.7809 82.2988 79.1129 81.9707C78.445 81.6426 77.9205 81.1885 77.5397 80.6084C77.1647 80.0225 76.9772 79.3574 76.9772 78.6133C76.9772 77.8691 77.1647 77.207 77.5397 76.627C77.9205 76.041 78.445 75.584 79.1129 75.2559C79.7809 74.9277 80.525 74.7637 81.3454 74.7637ZM81.3454 76.46C80.8825 76.46 80.4664 76.5479 80.0973 76.7236C79.7282 76.8994 79.4381 77.1514 79.2272 77.4795C79.0163 77.8018 78.9108 78.1797 78.9108 78.6133C78.9108 79.0469 79.0163 79.4248 79.2272 79.7471C79.4381 80.0693 79.7282 80.3213 80.0973 80.5029C80.4664 80.6787 80.8825 80.7666 81.3454 80.7666C81.82 80.7666 82.2418 80.6787 82.611 80.5029C82.9801 80.3213 83.2672 80.0693 83.4723 79.7471C83.6832 79.4248 83.7887 79.0469 83.7887 78.6133C83.7887 78.1797 83.6832 77.8018 83.4723 77.4795C83.2672 77.1514 82.9801 76.8994 82.611 76.7236C82.2418 76.5479 81.82 76.46 81.3454 76.46ZM89.4137 89.5908H87.4801V73.6738H89.4137V89.5908ZM76.2565 84.6602C77.5573 84.6543 78.735 84.6396 79.7897 84.6162C80.8444 84.5928 81.9664 84.5459 83.1559 84.4756C84.3454 84.3994 85.4674 84.2852 86.5221 84.1328L86.6715 85.5566C85.5758 85.7559 84.4391 85.9082 83.2614 86.0137C82.0836 86.1191 80.9762 86.1865 79.9391 86.2158C78.9079 86.2451 77.7623 86.2598 76.5026 86.2598L76.2565 84.6602ZM107.072 76.2139H97.0257V74.6406H107.072V76.2139ZM109.787 83.0078H95.3207V81.417H109.787V83.0078ZM103.477 89.582H101.508V82.5156H103.477V89.582ZM108.021 76.0557C108.021 76.835 108.009 77.5029 107.986 78.0596C107.968 78.6162 107.912 79.2607 107.819 79.9932C107.731 80.7256 107.59 81.5195 107.397 82.375L105.463 82.1553C105.657 81.3408 105.797 80.5791 105.885 79.8701C105.973 79.1553 106.026 78.5254 106.043 77.9805C106.061 77.4355 106.07 76.7939 106.07 76.0557V74.6406H108.021V76.0557ZM118.41 74.2275C118.41 75.1064 118.134 75.9062 117.584 76.627C117.033 77.3477 116.268 77.9453 115.29 78.4199C114.311 78.8887 113.183 79.2021 111.906 79.3604L111.256 77.8838C112.334 77.7607 113.292 77.5205 114.13 77.1631C114.967 76.7998 115.612 76.3633 116.063 75.8535C116.52 75.3379 116.749 74.7959 116.749 74.2275V73.7969H118.41V74.2275ZM118.761 74.2275C118.761 74.7959 118.987 75.3379 119.438 75.8535C119.895 76.3633 120.54 76.7998 121.372 77.1631C122.21 77.5205 123.171 77.7607 124.255 77.8838L123.578 79.3604C122.312 79.2021 121.187 78.8887 120.203 78.4199C119.218 77.9453 118.451 77.3477 117.9 76.627C117.349 75.9062 117.074 75.1064 117.074 74.2275V73.7969H118.761V74.2275ZM124.984 81.6807H110.517V80.0898H124.984V81.6807ZM123.191 86.7432H114.156V88.2988H112.222V85.3633H121.258V84.2646H112.214V82.7969H123.191V86.7432ZM123.622 89.4238H112.222V87.9297H123.622V89.4238ZM132.947 73.9287C134.149 73.9287 135.177 74.0312 136.032 74.2363C136.888 74.4414 137.538 74.749 137.983 75.1592C138.429 75.5635 138.651 76.0557 138.651 76.6357C138.651 77.2217 138.429 77.7197 137.983 78.1299C137.538 78.5342 136.888 78.8418 136.032 79.0527C135.177 79.2637 134.149 79.375 132.947 79.3867C131.734 79.375 130.7 79.2637 129.845 79.0527C128.989 78.8418 128.336 78.5342 127.885 78.1299C127.434 77.7197 127.208 77.2217 127.208 76.6357C127.208 76.0557 127.434 75.5635 127.885 75.1592C128.336 74.749 128.989 74.4414 129.845 74.2363C130.7 74.0312 131.734 73.9287 132.947 73.9287ZM132.947 75.3613C132.139 75.3613 131.459 75.4111 130.908 75.5107C130.357 75.6045 129.944 75.748 129.669 75.9414C129.394 76.1348 129.256 76.3662 129.256 76.6357C129.256 76.9346 129.391 77.1777 129.66 77.3652C129.93 77.5527 130.337 77.6934 130.882 77.7871C131.427 77.8809 132.115 77.9277 132.947 77.9277C133.785 77.9277 134.474 77.8809 135.013 77.7871C135.552 77.6934 135.959 77.5498 136.234 77.3564C136.51 77.1631 136.648 76.9229 136.648 76.6357C136.648 76.3662 136.507 76.1377 136.226 75.9502C135.944 75.7568 135.528 75.6104 134.978 75.5107C134.433 75.4111 133.756 75.3613 132.947 75.3613ZM140.181 81.8037H125.714V80.2393H140.181V81.8037ZM138.388 86.752H129.353V88.3428H127.419V85.3721H136.454V84.3086H127.41V82.8672H138.388V86.752ZM138.818 89.4238H127.419V87.9297H138.818V89.4238ZM59.7896 101.78H55.9488V100.181H59.7896V101.78ZM53.1451 99.4688C53.1451 100.535 52.9752 101.528 52.6354 102.448C52.2955 103.362 51.7975 104.162 51.1412 104.848C50.485 105.527 49.6852 106.046 48.7418 106.403L47.6959 104.848C48.5279 104.561 49.234 104.145 49.8141 103.6C50.3941 103.049 50.8307 102.419 51.1236 101.71C51.4225 101.001 51.5719 100.254 51.5719 99.4688V97.6582H53.1451V99.4688ZM53.5318 99.4951C53.5318 100.21 53.6725 100.896 53.9537 101.552C54.2408 102.208 54.6656 102.794 55.2281 103.31C55.7906 103.825 56.4674 104.224 57.2584 104.505L56.1861 106.017C55.2955 105.677 54.5338 105.185 53.901 104.54C53.274 103.89 52.7965 103.134 52.4684 102.272C52.1402 101.411 51.9762 100.485 51.9762 99.4951V97.6582H53.5318V99.4951ZM61.0641 108.478H59.1129V96.6914H61.0641V108.478ZM61.4068 112.266H50.5875V110.666H61.4068V112.266ZM52.5738 111.492H50.5875V107.203H52.5738V111.492ZM64.6152 104.065C65.9218 104.06 66.9853 104.03 67.8056 103.978C68.6259 103.925 69.4492 103.825 70.2754 103.679L70.4687 105.261C69.5839 105.419 68.7168 105.527 67.8671 105.586C67.0234 105.639 65.9394 105.665 64.6152 105.665H63.5605V104.065H64.6152ZM69.8007 99.3545H65.4326V104.936H63.5605V97.7637H69.8007V99.3545ZM69.6338 102.387H64.8613V100.893H69.6338V102.387ZM76.542 106.359H74.6787V96.6914H76.542V106.359ZM75.2236 102.229H72.499V100.664H75.2236V102.229ZM73.0175 106.254H71.207V96.9814H73.0175V106.254ZM76.542 112.547H74.6084V108.645H65.6611V107.071H76.542V112.547ZM85.8939 100.77H78.1243V99.2051H85.8939V100.77ZM82.0267 101.604C82.7005 101.604 83.2982 101.763 83.8196 102.079C84.347 102.39 84.7601 102.826 85.0589 103.389C85.3577 103.951 85.5071 104.593 85.5071 105.313C85.5071 106.034 85.3577 106.679 85.0589 107.247C84.7601 107.81 84.347 108.252 83.8196 108.574C83.2982 108.896 82.7005 109.058 82.0267 109.058C81.3646 109.058 80.7698 108.896 80.2425 108.574C79.721 108.252 79.3109 107.807 79.012 107.238C78.7132 106.67 78.5638 106.028 78.5638 105.313C78.5638 104.604 78.7132 103.966 79.012 103.397C79.3109 102.829 79.721 102.39 80.2425 102.079C80.7698 101.763 81.3646 101.604 82.0267 101.604ZM82.0267 103.23C81.6927 103.225 81.3939 103.31 81.1302 103.485C80.8665 103.661 80.6614 103.907 80.515 104.224C80.3685 104.534 80.2952 104.897 80.2952 105.313C80.2952 105.729 80.3685 106.096 80.515 106.412C80.6673 106.729 80.8724 106.969 81.1302 107.133C81.3939 107.297 81.6927 107.379 82.0267 107.379C82.3665 107.379 82.6683 107.297 82.932 107.133C83.1956 106.969 83.4036 106.729 83.556 106.412C83.7083 106.096 83.7845 105.729 83.7845 105.313C83.7845 104.897 83.7083 104.534 83.556 104.224C83.4036 103.907 83.1956 103.661 82.932 103.485C82.6683 103.31 82.3665 103.225 82.0267 103.23ZM91.8089 112.547H89.9456V96.6738H91.8089V112.547ZM90.5609 104.786H87.7747V103.213H90.5609V104.786ZM88.3988 111.835H86.5618V97.0166H88.3988V111.835ZM82.9935 100.181H81.0687V97.1309H82.9935V100.181ZM101.17 98.9238C101.17 99.8496 100.9 100.699 100.361 101.473C99.8278 102.246 99.0837 102.894 98.1286 103.415C97.1735 103.931 96.0778 104.282 94.8415 104.47L94.1032 102.94C95.1579 102.8 96.0925 102.527 96.9069 102.123C97.7214 101.719 98.3512 101.238 98.7966 100.682C99.2419 100.119 99.4645 99.5332 99.4645 98.9238V98.3789H101.17V98.9238ZM101.715 98.9238C101.715 99.5332 101.934 100.119 102.374 100.682C102.819 101.238 103.449 101.719 104.263 102.123C105.084 102.527 106.021 102.8 107.076 102.94L106.373 104.47C105.125 104.282 104.02 103.931 103.059 103.415C102.098 102.899 101.348 102.255 100.809 101.481C100.276 100.702 100.009 99.8496 100.009 98.9238V98.3789H101.715V98.9238ZM101.512 112.556H99.5876V106.632H101.512V112.556ZM107.823 107.106H93.3561V105.533H107.823V107.106ZM106.496 99.1084H94.6657V97.5703H106.496V99.1084ZM117.693 103.758H114.846V102.149H117.693V103.758ZM113.123 100.928C113.123 102.123 112.988 103.266 112.719 104.355C112.455 105.439 112.051 106.412 111.506 107.273C110.961 108.129 110.29 108.8 109.493 109.286L108.289 107.836C109.027 107.385 109.646 106.793 110.144 106.061C110.642 105.328 111.011 104.525 111.251 103.652C111.497 102.779 111.62 101.871 111.62 100.928V98.0889H113.123V100.928ZM113.51 100.849C113.51 101.757 113.615 102.624 113.826 103.45C114.043 104.271 114.377 105.029 114.828 105.727C115.285 106.424 115.856 106.989 116.542 107.423L115.47 108.935C114.679 108.46 114.028 107.801 113.519 106.957C113.009 106.113 112.634 105.176 112.394 104.145C112.153 103.113 112.033 102.015 112.033 100.849V98.0889H113.51V100.849ZM122.255 112.547H120.374V96.6738H122.255V112.547ZM118.941 111.8H117.113V96.9463H118.941V111.8ZM129.032 109.348H127.107V104.795H129.032V109.348ZM134.912 109.348H132.943V104.795H134.912V109.348ZM138.269 110.64H123.749V109.031H138.269V110.64ZM130.983 97.5264C132.12 97.5264 133.133 97.7021 134.024 98.0537C134.92 98.3994 135.623 98.8916 136.133 99.5303C136.643 100.169 136.898 100.901 136.898 101.728C136.898 102.56 136.643 103.292 136.133 103.925C135.629 104.558 134.929 105.047 134.033 105.393C133.142 105.738 132.125 105.914 130.983 105.92C129.84 105.914 128.821 105.738 127.924 105.393C127.034 105.047 126.333 104.558 125.824 103.925C125.32 103.292 125.068 102.56 125.068 101.728C125.068 100.901 125.32 100.169 125.824 99.5303C126.333 98.8916 127.037 98.3994 127.933 98.0537C128.829 97.7021 129.846 97.5264 130.983 97.5264ZM130.983 99.0908C130.192 99.085 129.495 99.1875 128.891 99.3984C128.293 99.6094 127.825 99.9141 127.485 100.312C127.151 100.711 126.984 101.183 126.984 101.728C126.984 102.267 127.151 102.738 127.485 103.143C127.825 103.541 128.293 103.852 128.891 104.074C129.495 104.291 130.192 104.399 130.983 104.399C131.762 104.399 132.454 104.291 133.057 104.074C133.661 103.852 134.129 103.541 134.463 103.143C134.803 102.738 134.973 102.267 134.973 101.728C134.973 101.183 134.803 100.714 134.463 100.321C134.129 99.9229 133.661 99.6182 133.057 99.4072C132.459 99.1904 131.768 99.085 130.983 99.0908Z" fill="#7C7C7C"/>
<rect width="185" height="185" rx="92.5" fill="#E6E6E6"/>
<path d="M50.0644 74.834C50.8613 74.834 51.5702 75.0654 52.1913 75.5283C52.8124 75.9854 53.3017 76.6387 53.6591 77.4883C54.0165 78.332 54.1952 79.3164 54.1952 80.4414C54.1952 81.5723 54.0165 82.5625 53.6591 83.4121C53.3017 84.2559 52.8095 84.9092 52.1825 85.3721C51.5614 85.835 50.8554 86.0664 50.0644 86.0664C49.2675 86.0664 48.5556 85.835 47.9286 85.3721C47.3017 84.9092 46.8124 84.2559 46.4609 83.4121C46.1093 82.5625 45.9335 81.5723 45.9335 80.4414C45.9335 79.3164 46.1093 78.332 46.4609 77.4883C46.8124 76.6387 47.3017 75.9854 47.9286 75.5283C48.5556 75.0654 49.2675 74.834 50.0644 74.834ZM50.0644 76.5918C49.6191 76.5859 49.2236 76.7383 48.8779 77.0488C48.538 77.3594 48.2743 77.8047 48.0868 78.3848C47.9052 78.959 47.8144 79.6445 47.8144 80.4414C47.8144 81.2383 47.9052 81.9297 48.0868 82.5156C48.2743 83.0957 48.5409 83.5381 48.8866 83.8428C49.2323 84.1416 49.6249 84.291 50.0644 84.291C50.5097 84.291 50.9023 84.1416 51.2421 83.8428C51.5878 83.5381 51.8515 83.0957 52.0331 82.5156C52.2148 81.9297 52.3056 81.2383 52.3056 80.4414C52.3056 79.6387 52.2148 78.9502 52.0331 78.376C51.8515 77.7959 51.5878 77.3535 51.2421 77.0488C50.9023 76.7383 50.5097 76.5859 50.0644 76.5918ZM58.2382 89.5469H56.287V73.6738H58.2382V89.5469ZM60.6904 81.4258H57.7988V79.7822H60.6904V81.4258ZM62.5452 84.3086C63.6585 84.3145 64.6516 84.2939 65.5247 84.2471C66.3977 84.1943 67.3089 84.0947 68.2581 83.9482L68.4075 85.5039C67.4173 85.6738 66.471 85.7881 65.5686 85.8467C64.6722 85.9053 63.6643 85.9346 62.5452 85.9346H61.4641V84.3086H62.5452ZM67.4583 81.2148H63.3538V84.915H61.4641V79.6416H65.5774V76.8818H61.4378V75.2822H67.4583V81.2148ZM74.6565 89.5469H72.8108V73.6738H74.6565V89.5469ZM73.2679 81.3555H70.4466V79.7822H73.2679V81.3555ZM71.0091 88.7646H69.2249V73.9727H71.0091V88.7646ZM81.3454 74.7637C82.1774 74.7637 82.9245 74.9277 83.5866 75.2559C84.2487 75.584 84.7672 76.041 85.1422 76.627C85.5172 77.207 85.7047 77.8691 85.7047 78.6133C85.7047 79.3574 85.5172 80.0225 85.1422 80.6084C84.7672 81.1885 84.2487 81.6426 83.5866 81.9707C82.9303 82.2988 82.1832 82.4629 81.3454 82.4629C80.525 82.4629 79.7809 82.2988 79.1129 81.9707C78.445 81.6426 77.9205 81.1885 77.5397 80.6084C77.1647 80.0225 76.9772 79.3574 76.9772 78.6133C76.9772 77.8691 77.1647 77.207 77.5397 76.627C77.9205 76.041 78.445 75.584 79.1129 75.2559C79.7809 74.9277 80.525 74.7637 81.3454 74.7637ZM81.3454 76.46C80.8825 76.46 80.4664 76.5479 80.0973 76.7236C79.7282 76.8994 79.4381 77.1514 79.2272 77.4795C79.0163 77.8018 78.9108 78.1797 78.9108 78.6133C78.9108 79.0469 79.0163 79.4248 79.2272 79.7471C79.4381 80.0693 79.7282 80.3213 80.0973 80.5029C80.4664 80.6787 80.8825 80.7666 81.3454 80.7666C81.82 80.7666 82.2418 80.6787 82.611 80.5029C82.9801 80.3213 83.2672 80.0693 83.4723 79.7471C83.6832 79.4248 83.7887 79.0469 83.7887 78.6133C83.7887 78.1797 83.6832 77.8018 83.4723 77.4795C83.2672 77.1514 82.9801 76.8994 82.611 76.7236C82.2418 76.5479 81.82 76.46 81.3454 76.46ZM89.4137 89.5908H87.4801V73.6738H89.4137V89.5908ZM76.2565 84.6602C77.5573 84.6543 78.735 84.6396 79.7897 84.6162C80.8444 84.5928 81.9664 84.5459 83.1559 84.4756C84.3454 84.3994 85.4674 84.2852 86.5221 84.1328L86.6715 85.5566C85.5758 85.7559 84.4391 85.9082 83.2614 86.0137C82.0836 86.1191 80.9762 86.1865 79.9391 86.2158C78.9079 86.2451 77.7623 86.2598 76.5026 86.2598L76.2565 84.6602ZM107.072 76.2139H97.0257V74.6406H107.072V76.2139ZM109.787 83.0078H95.3207V81.417H109.787V83.0078ZM103.477 89.582H101.508V82.5156H103.477V89.582ZM108.021 76.0557C108.021 76.835 108.009 77.5029 107.986 78.0596C107.968 78.6162 107.912 79.2607 107.819 79.9932C107.731 80.7256 107.59 81.5195 107.397 82.375L105.463 82.1553C105.657 81.3408 105.797 80.5791 105.885 79.8701C105.973 79.1553 106.026 78.5254 106.043 77.9805C106.061 77.4355 106.07 76.7939 106.07 76.0557V74.6406H108.021V76.0557ZM118.41 74.2275C118.41 75.1064 118.134 75.9062 117.584 76.627C117.033 77.3477 116.268 77.9453 115.29 78.4199C114.311 78.8887 113.183 79.2021 111.906 79.3604L111.256 77.8838C112.334 77.7607 113.292 77.5205 114.13 77.1631C114.967 76.7998 115.612 76.3633 116.063 75.8535C116.52 75.3379 116.749 74.7959 116.749 74.2275V73.7969H118.41V74.2275ZM118.761 74.2275C118.761 74.7959 118.987 75.3379 119.438 75.8535C119.895 76.3633 120.54 76.7998 121.372 77.1631C122.21 77.5205 123.171 77.7607 124.255 77.8838L123.578 79.3604C122.312 79.2021 121.187 78.8887 120.203 78.4199C119.218 77.9453 118.451 77.3477 117.9 76.627C117.349 75.9062 117.074 75.1064 117.074 74.2275V73.7969H118.761V74.2275ZM124.984 81.6807H110.517V80.0898H124.984V81.6807ZM123.191 86.7432H114.156V88.2988H112.222V85.3633H121.258V84.2646H112.214V82.7969H123.191V86.7432ZM123.622 89.4238H112.222V87.9297H123.622V89.4238ZM132.947 73.9287C134.149 73.9287 135.177 74.0312 136.032 74.2363C136.888 74.4414 137.538 74.749 137.983 75.1592C138.429 75.5635 138.651 76.0557 138.651 76.6357C138.651 77.2217 138.429 77.7197 137.983 78.1299C137.538 78.5342 136.888 78.8418 136.032 79.0527C135.177 79.2637 134.149 79.375 132.947 79.3867C131.734 79.375 130.7 79.2637 129.845 79.0527C128.989 78.8418 128.336 78.5342 127.885 78.1299C127.434 77.7197 127.208 77.2217 127.208 76.6357C127.208 76.0557 127.434 75.5635 127.885 75.1592C128.336 74.749 128.989 74.4414 129.845 74.2363C130.7 74.0312 131.734 73.9287 132.947 73.9287ZM132.947 75.3613C132.139 75.3613 131.459 75.4111 130.908 75.5107C130.357 75.6045 129.944 75.748 129.669 75.9414C129.394 76.1348 129.256 76.3662 129.256 76.6357C129.256 76.9346 129.391 77.1777 129.66 77.3652C129.93 77.5527 130.337 77.6934 130.882 77.7871C131.427 77.8809 132.115 77.9277 132.947 77.9277C133.785 77.9277 134.474 77.8809 135.013 77.7871C135.552 77.6934 135.959 77.5498 136.234 77.3564C136.51 77.1631 136.648 76.9229 136.648 76.6357C136.648 76.3662 136.507 76.1377 136.226 75.9502C135.944 75.7568 135.528 75.6104 134.978 75.5107C134.433 75.4111 133.756 75.3613 132.947 75.3613ZM140.181 81.8037H125.714V80.2393H140.181V81.8037ZM138.388 86.752H129.353V88.3428H127.419V85.3721H136.454V84.3086H127.41V82.8672H138.388V86.752ZM138.818 89.4238H127.419V87.9297H138.818V89.4238ZM59.7896 101.78H55.9488V100.181H59.7896V101.78ZM53.1451 99.4688C53.1451 100.535 52.9752 101.528 52.6354 102.448C52.2955 103.362 51.7975 104.162 51.1412 104.848C50.485 105.527 49.6852 106.046 48.7418 106.403L47.6959 104.848C48.5279 104.561 49.234 104.145 49.8141 103.6C50.3941 103.049 50.8307 102.419 51.1236 101.71C51.4225 101.001 51.5719 100.254 51.5719 99.4688V97.6582H53.1451V99.4688ZM53.5318 99.4951C53.5318 100.21 53.6725 100.896 53.9537 101.552C54.2408 102.208 54.6656 102.794 55.2281 103.31C55.7906 103.825 56.4674 104.224 57.2584 104.505L56.1861 106.017C55.2955 105.677 54.5338 105.185 53.901 104.54C53.274 103.89 52.7965 103.134 52.4684 102.272C52.1402 101.411 51.9762 100.485 51.9762 99.4951V97.6582H53.5318V99.4951ZM61.0641 108.478H59.1129V96.6914H61.0641V108.478ZM61.4068 112.266H50.5875V110.666H61.4068V112.266ZM52.5738 111.492H50.5875V107.203H52.5738V111.492ZM64.6152 104.065C65.9218 104.06 66.9853 104.03 67.8056 103.978C68.6259 103.925 69.4492 103.825 70.2754 103.679L70.4687 105.261C69.5839 105.419 68.7168 105.527 67.8671 105.586C67.0234 105.639 65.9394 105.665 64.6152 105.665H63.5605V104.065H64.6152ZM69.8007 99.3545H65.4326V104.936H63.5605V97.7637H69.8007V99.3545ZM69.6338 102.387H64.8613V100.893H69.6338V102.387ZM76.542 106.359H74.6787V96.6914H76.542V106.359ZM75.2236 102.229H72.499V100.664H75.2236V102.229ZM73.0175 106.254H71.207V96.9814H73.0175V106.254ZM76.542 112.547H74.6084V108.645H65.6611V107.071H76.542V112.547ZM85.8939 100.77H78.1243V99.2051H85.8939V100.77ZM82.0267 101.604C82.7005 101.604 83.2982 101.763 83.8196 102.079C84.347 102.39 84.7601 102.826 85.0589 103.389C85.3577 103.951 85.5071 104.593 85.5071 105.313C85.5071 106.034 85.3577 106.679 85.0589 107.247C84.7601 107.81 84.347 108.252 83.8196 108.574C83.2982 108.896 82.7005 109.058 82.0267 109.058C81.3646 109.058 80.7698 108.896 80.2425 108.574C79.721 108.252 79.3109 107.807 79.012 107.238C78.7132 106.67 78.5638 106.028 78.5638 105.313C78.5638 104.604 78.7132 103.966 79.012 103.397C79.3109 102.829 79.721 102.39 80.2425 102.079C80.7698 101.763 81.3646 101.604 82.0267 101.604ZM82.0267 103.23C81.6927 103.225 81.3939 103.31 81.1302 103.485C80.8665 103.661 80.6614 103.907 80.515 104.224C80.3685 104.534 80.2952 104.897 80.2952 105.313C80.2952 105.729 80.3685 106.096 80.515 106.412C80.6673 106.729 80.8724 106.969 81.1302 107.133C81.3939 107.297 81.6927 107.379 82.0267 107.379C82.3665 107.379 82.6683 107.297 82.932 107.133C83.1956 106.969 83.4036 106.729 83.556 106.412C83.7083 106.096 83.7845 105.729 83.7845 105.313C83.7845 104.897 83.7083 104.534 83.556 104.224C83.4036 103.907 83.1956 103.661 82.932 103.485C82.6683 103.31 82.3665 103.225 82.0267 103.23ZM91.8089 112.547H89.9456V96.6738H91.8089V112.547ZM90.5609 104.786H87.7747V103.213H90.5609V104.786ZM88.3988 111.835H86.5618V97.0166H88.3988V111.835ZM82.9935 100.181H81.0687V97.1309H82.9935V100.181ZM101.17 98.9238C101.17 99.8496 100.9 100.699 100.361 101.473C99.8278 102.246 99.0837 102.894 98.1286 103.415C97.1735 103.931 96.0778 104.282 94.8415 104.47L94.1032 102.94C95.1579 102.8 96.0925 102.527 96.9069 102.123C97.7214 101.719 98.3512 101.238 98.7966 100.682C99.2419 100.119 99.4645 99.5332 99.4645 98.9238V98.3789H101.17V98.9238ZM101.715 98.9238C101.715 99.5332 101.934 100.119 102.374 100.682C102.819 101.238 103.449 101.719 104.263 102.123C105.084 102.527 106.021 102.8 107.076 102.94L106.373 104.47C105.125 104.282 104.02 103.931 103.059 103.415C102.098 102.899 101.348 102.255 100.809 101.481C100.276 100.702 100.009 99.8496 100.009 98.9238V98.3789H101.715V98.9238ZM101.512 112.556H99.5876V106.632H101.512V112.556ZM107.823 107.106H93.3561V105.533H107.823V107.106ZM106.496 99.1084H94.6657V97.5703H106.496V99.1084ZM117.693 103.758H114.846V102.149H117.693V103.758ZM113.123 100.928C113.123 102.123 112.988 103.266 112.719 104.355C112.455 105.439 112.051 106.412 111.506 107.273C110.961 108.129 110.29 108.8 109.493 109.286L108.289 107.836C109.027 107.385 109.646 106.793 110.144 106.061C110.642 105.328 111.011 104.525 111.251 103.652C111.497 102.779 111.62 101.871 111.62 100.928V98.0889H113.123V100.928ZM113.51 100.849C113.51 101.757 113.615 102.624 113.826 103.45C114.043 104.271 114.377 105.029 114.828 105.727C115.285 106.424 115.856 106.989 116.542 107.423L115.47 108.935C114.679 108.46 114.028 107.801 113.519 106.957C113.009 106.113 112.634 105.176 112.394 104.145C112.153 103.113 112.033 102.015 112.033 100.849V98.0889H113.51V100.849ZM122.255 112.547H120.374V96.6738H122.255V112.547ZM118.941 111.8H117.113V96.9463H118.941V111.8ZM129.032 109.348H127.107V104.795H129.032V109.348ZM134.912 109.348H132.943V104.795H134.912V109.348ZM138.269 110.64H123.749V109.031H138.269V110.64ZM130.983 97.5264C132.12 97.5264 133.133 97.7021 134.024 98.0537C134.92 98.3994 135.623 98.8916 136.133 99.5303C136.643 100.169 136.898 100.901 136.898 101.728C136.898 102.56 136.643 103.292 136.133 103.925C135.629 104.558 134.929 105.047 134.033 105.393C133.142 105.738 132.125 105.914 130.983 105.92C129.84 105.914 128.821 105.738 127.924 105.393C127.034 105.047 126.333 104.558 125.824 103.925C125.32 103.292 125.068 102.56 125.068 101.728C125.068 100.901 125.32 100.169 125.824 99.5303C126.333 98.8916 127.037 98.3994 127.933 98.0537C128.829 97.7021 129.846 97.5264 130.983 97.5264ZM130.983 99.0908C130.192 99.085 129.495 99.1875 128.891 99.3984C128.293 99.6094 127.825 99.9141 127.485 100.312C127.151 100.711 126.984 101.183 126.984 101.728C126.984 102.267 127.151 102.738 127.485 103.143C127.825 103.541 128.293 103.852 128.891 104.074C129.495 104.291 130.192 104.399 130.983 104.399C131.762 104.399 132.454 104.291 133.057 104.074C133.661 103.852 134.129 103.541 134.463 103.143C134.803 102.738 134.973 102.267 134.973 101.728C134.973 101.183 134.803 100.714 134.463 100.321C134.129 99.9229 133.661 99.6182 133.057 99.4072C132.459 99.1904 131.768 99.085 130.983 99.0908Z" fill="#7C7C7C"/>
<g filter="url(#filter1_i_123_6815)">
<g clip-path="url(#clip1_123_6815)">
<rect width="185" height="185" rx="92.5" fill="#E6E6E6"/>
<path d="M50.0644 74.834C50.8613 74.834 51.5702 75.0654 52.1913 75.5283C52.8124 75.9854 53.3017 76.6387 53.6591 77.4883C54.0165 78.332 54.1952 79.3164 54.1952 80.4414C54.1952 81.5723 54.0165 82.5625 53.6591 83.4121C53.3017 84.2559 52.8095 84.9092 52.1825 85.3721C51.5614 85.835 50.8554 86.0664 50.0644 86.0664C49.2675 86.0664 48.5556 85.835 47.9286 85.3721C47.3017 84.9092 46.8124 84.2559 46.4609 83.4121C46.1093 82.5625 45.9335 81.5723 45.9335 80.4414C45.9335 79.3164 46.1093 78.332 46.4609 77.4883C46.8124 76.6387 47.3017 75.9854 47.9286 75.5283C48.5556 75.0654 49.2675 74.834 50.0644 74.834ZM50.0644 76.5918C49.6191 76.5859 49.2236 76.7383 48.8779 77.0488C48.538 77.3594 48.2743 77.8047 48.0868 78.3848C47.9052 78.959 47.8144 79.6445 47.8144 80.4414C47.8144 81.2383 47.9052 81.9297 48.0868 82.5156C48.2743 83.0957 48.5409 83.5381 48.8866 83.8428C49.2323 84.1416 49.6249 84.291 50.0644 84.291C50.5097 84.291 50.9023 84.1416 51.2421 83.8428C51.5878 83.5381 51.8515 83.0957 52.0331 82.5156C52.2148 81.9297 52.3056 81.2383 52.3056 80.4414C52.3056 79.6387 52.2148 78.9502 52.0331 78.376C51.8515 77.7959 51.5878 77.3535 51.2421 77.0488C50.9023 76.7383 50.5097 76.5859 50.0644 76.5918ZM58.2382 89.5469H56.287V73.6738H58.2382V89.5469ZM60.6904 81.4258H57.7988V79.7822H60.6904V81.4258ZM62.5452 84.3086C63.6585 84.3145 64.6516 84.2939 65.5247 84.2471C66.3977 84.1943 67.3089 84.0947 68.2581 83.9482L68.4075 85.5039C67.4173 85.6738 66.471 85.7881 65.5686 85.8467C64.6722 85.9053 63.6643 85.9346 62.5452 85.9346H61.4641V84.3086H62.5452ZM67.4583 81.2148H63.3538V84.915H61.4641V79.6416H65.5774V76.8818H61.4378V75.2822H67.4583V81.2148ZM74.6565 89.5469H72.8108V73.6738H74.6565V89.5469ZM73.2679 81.3555H70.4466V79.7822H73.2679V81.3555ZM71.0091 88.7646H69.2249V73.9727H71.0091V88.7646ZM81.3454 74.7637C82.1774 74.7637 82.9245 74.9277 83.5866 75.2559C84.2487 75.584 84.7672 76.041 85.1422 76.627C85.5172 77.207 85.7047 77.8691 85.7047 78.6133C85.7047 79.3574 85.5172 80.0225 85.1422 80.6084C84.7672 81.1885 84.2487 81.6426 83.5866 81.9707C82.9303 82.2988 82.1832 82.4629 81.3454 82.4629C80.525 82.4629 79.7809 82.2988 79.1129 81.9707C78.445 81.6426 77.9205 81.1885 77.5397 80.6084C77.1647 80.0225 76.9772 79.3574 76.9772 78.6133C76.9772 77.8691 77.1647 77.207 77.5397 76.627C77.9205 76.041 78.445 75.584 79.1129 75.2559C79.7809 74.9277 80.525 74.7637 81.3454 74.7637ZM81.3454 76.46C80.8825 76.46 80.4664 76.5479 80.0973 76.7236C79.7282 76.8994 79.4381 77.1514 79.2272 77.4795C79.0163 77.8018 78.9108 78.1797 78.9108 78.6133C78.9108 79.0469 79.0163 79.4248 79.2272 79.7471C79.4381 80.0693 79.7282 80.3213 80.0973 80.5029C80.4664 80.6787 80.8825 80.7666 81.3454 80.7666C81.82 80.7666 82.2418 80.6787 82.611 80.5029C82.9801 80.3213 83.2672 80.0693 83.4723 79.7471C83.6832 79.4248 83.7887 79.0469 83.7887 78.6133C83.7887 78.1797 83.6832 77.8018 83.4723 77.4795C83.2672 77.1514 82.9801 76.8994 82.611 76.7236C82.2418 76.5479 81.82 76.46 81.3454 76.46ZM89.4137 89.5908H87.4801V73.6738H89.4137V89.5908ZM76.2565 84.6602C77.5573 84.6543 78.735 84.6396 79.7897 84.6162C80.8444 84.5928 81.9664 84.5459 83.1559 84.4756C84.3454 84.3994 85.4674 84.2852 86.5221 84.1328L86.6715 85.5566C85.5758 85.7559 84.4391 85.9082 83.2614 86.0137C82.0836 86.1191 80.9762 86.1865 79.9391 86.2158C78.9079 86.2451 77.7623 86.2598 76.5026 86.2598L76.2565 84.6602ZM107.072 76.2139H97.0257V74.6406H107.072V76.2139ZM109.787 83.0078H95.3207V81.417H109.787V83.0078ZM103.477 89.582H101.508V82.5156H103.477V89.582ZM108.021 76.0557C108.021 76.835 108.009 77.5029 107.986 78.0596C107.968 78.6162 107.912 79.2607 107.819 79.9932C107.731 80.7256 107.59 81.5195 107.397 82.375L105.463 82.1553C105.657 81.3408 105.797 80.5791 105.885 79.8701C105.973 79.1553 106.026 78.5254 106.043 77.9805C106.061 77.4355 106.07 76.7939 106.07 76.0557V74.6406H108.021V76.0557ZM118.41 74.2275C118.41 75.1064 118.134 75.9062 117.584 76.627C117.033 77.3477 116.268 77.9453 115.29 78.4199C114.311 78.8887 113.183 79.2021 111.906 79.3604L111.256 77.8838C112.334 77.7607 113.292 77.5205 114.13 77.1631C114.967 76.7998 115.612 76.3633 116.063 75.8535C116.52 75.3379 116.749 74.7959 116.749 74.2275V73.7969H118.41V74.2275ZM118.761 74.2275C118.761 74.7959 118.987 75.3379 119.438 75.8535C119.895 76.3633 120.54 76.7998 121.372 77.1631C122.21 77.5205 123.171 77.7607 124.255 77.8838L123.578 79.3604C122.312 79.2021 121.187 78.8887 120.203 78.4199C119.218 77.9453 118.451 77.3477 117.9 76.627C117.349 75.9062 117.074 75.1064 117.074 74.2275V73.7969H118.761V74.2275ZM124.984 81.6807H110.517V80.0898H124.984V81.6807ZM123.191 86.7432H114.156V88.2988H112.222V85.3633H121.258V84.2646H112.214V82.7969H123.191V86.7432ZM123.622 89.4238H112.222V87.9297H123.622V89.4238ZM132.947 73.9287C134.149 73.9287 135.177 74.0312 136.032 74.2363C136.888 74.4414 137.538 74.749 137.983 75.1592C138.429 75.5635 138.651 76.0557 138.651 76.6357C138.651 77.2217 138.429 77.7197 137.983 78.1299C137.538 78.5342 136.888 78.8418 136.032 79.0527C135.177 79.2637 134.149 79.375 132.947 79.3867C131.734 79.375 130.7 79.2637 129.845 79.0527C128.989 78.8418 128.336 78.5342 127.885 78.1299C127.434 77.7197 127.208 77.2217 127.208 76.6357C127.208 76.0557 127.434 75.5635 127.885 75.1592C128.336 74.749 128.989 74.4414 129.845 74.2363C130.7 74.0312 131.734 73.9287 132.947 73.9287ZM132.947 75.3613C132.139 75.3613 131.459 75.4111 130.908 75.5107C130.357 75.6045 129.944 75.748 129.669 75.9414C129.394 76.1348 129.256 76.3662 129.256 76.6357C129.256 76.9346 129.391 77.1777 129.66 77.3652C129.93 77.5527 130.337 77.6934 130.882 77.7871C131.427 77.8809 132.115 77.9277 132.947 77.9277C133.785 77.9277 134.474 77.8809 135.013 77.7871C135.552 77.6934 135.959 77.5498 136.234 77.3564C136.51 77.1631 136.648 76.9229 136.648 76.6357C136.648 76.3662 136.507 76.1377 136.226 75.9502C135.944 75.7568 135.528 75.6104 134.978 75.5107C134.433 75.4111 133.756 75.3613 132.947 75.3613ZM140.181 81.8037H125.714V80.2393H140.181V81.8037ZM138.388 86.752H129.353V88.3428H127.419V85.3721H136.454V84.3086H127.41V82.8672H138.388V86.752ZM138.818 89.4238H127.419V87.9297H138.818V89.4238ZM59.7896 101.78H55.9488V100.181H59.7896V101.78ZM53.1451 99.4688C53.1451 100.535 52.9752 101.528 52.6354 102.448C52.2955 103.362 51.7975 104.162 51.1412 104.848C50.485 105.527 49.6852 106.046 48.7418 106.403L47.6959 104.848C48.5279 104.561 49.234 104.145 49.8141 103.6C50.3941 103.049 50.8307 102.419 51.1236 101.71C51.4225 101.001 51.5719 100.254 51.5719 99.4688V97.6582H53.1451V99.4688ZM53.5318 99.4951C53.5318 100.21 53.6725 100.896 53.9537 101.552C54.2408 102.208 54.6656 102.794 55.2281 103.31C55.7906 103.825 56.4674 104.224 57.2584 104.505L56.1861 106.017C55.2955 105.677 54.5338 105.185 53.901 104.54C53.274 103.89 52.7965 103.134 52.4684 102.272C52.1402 101.411 51.9762 100.485 51.9762 99.4951V97.6582H53.5318V99.4951ZM61.0641 108.478H59.1129V96.6914H61.0641V108.478ZM61.4068 112.266H50.5875V110.666H61.4068V112.266ZM52.5738 111.492H50.5875V107.203H52.5738V111.492ZM64.6152 104.065C65.9218 104.06 66.9853 104.03 67.8056 103.978C68.6259 103.925 69.4492 103.825 70.2754 103.679L70.4687 105.261C69.5839 105.419 68.7168 105.527 67.8671 105.586C67.0234 105.639 65.9394 105.665 64.6152 105.665H63.5605V104.065H64.6152ZM69.8007 99.3545H65.4326V104.936H63.5605V97.7637H69.8007V99.3545ZM69.6338 102.387H64.8613V100.893H69.6338V102.387ZM76.542 106.359H74.6787V96.6914H76.542V106.359ZM75.2236 102.229H72.499V100.664H75.2236V102.229ZM73.0175 106.254H71.207V96.9814H73.0175V106.254ZM76.542 112.547H74.6084V108.645H65.6611V107.071H76.542V112.547ZM85.8939 100.77H78.1243V99.2051H85.8939V100.77ZM82.0267 101.604C82.7005 101.604 83.2982 101.763 83.8196 102.079C84.347 102.39 84.7601 102.826 85.0589 103.389C85.3577 103.951 85.5071 104.593 85.5071 105.313C85.5071 106.034 85.3577 106.679 85.0589 107.247C84.7601 107.81 84.347 108.252 83.8196 108.574C83.2982 108.896 82.7005 109.058 82.0267 109.058C81.3646 109.058 80.7698 108.896 80.2425 108.574C79.721 108.252 79.3109 107.807 79.012 107.238C78.7132 106.67 78.5638 106.028 78.5638 105.313C78.5638 104.604 78.7132 103.966 79.012 103.397C79.3109 102.829 79.721 102.39 80.2425 102.079C80.7698 101.763 81.3646 101.604 82.0267 101.604ZM82.0267 103.23C81.6927 103.225 81.3939 103.31 81.1302 103.485C80.8665 103.661 80.6614 103.907 80.515 104.224C80.3685 104.534 80.2952 104.897 80.2952 105.313C80.2952 105.729 80.3685 106.096 80.515 106.412C80.6673 106.729 80.8724 106.969 81.1302 107.133C81.3939 107.297 81.6927 107.379 82.0267 107.379C82.3665 107.379 82.6683 107.297 82.932 107.133C83.1956 106.969 83.4036 106.729 83.556 106.412C83.7083 106.096 83.7845 105.729 83.7845 105.313C83.7845 104.897 83.7083 104.534 83.556 104.224C83.4036 103.907 83.1956 103.661 82.932 103.485C82.6683 103.31 82.3665 103.225 82.0267 103.23ZM91.8089 112.547H89.9456V96.6738H91.8089V112.547ZM90.5609 104.786H87.7747V103.213H90.5609V104.786ZM88.3988 111.835H86.5618V97.0166H88.3988V111.835ZM82.9935 100.181H81.0687V97.1309H82.9935V100.181ZM101.17 98.9238C101.17 99.8496 100.9 100.699 100.361 101.473C99.8278 102.246 99.0837 102.894 98.1286 103.415C97.1735 103.931 96.0778 104.282 94.8415 104.47L94.1032 102.94C95.1579 102.8 96.0925 102.527 96.9069 102.123C97.7214 101.719 98.3512 101.238 98.7966 100.682C99.2419 100.119 99.4645 99.5332 99.4645 98.9238V98.3789H101.17V98.9238ZM101.715 98.9238C101.715 99.5332 101.934 100.119 102.374 100.682C102.819 101.238 103.449 101.719 104.263 102.123C105.084 102.527 106.021 102.8 107.076 102.94L106.373 104.47C105.125 104.282 104.02 103.931 103.059 103.415C102.098 102.899 101.348 102.255 100.809 101.481C100.276 100.702 100.009 99.8496 100.009 98.9238V98.3789H101.715V98.9238ZM101.512 112.556H99.5876V106.632H101.512V112.556ZM107.823 107.106H93.3561V105.533H107.823V107.106ZM106.496 99.1084H94.6657V97.5703H106.496V99.1084ZM117.693 103.758H114.846V102.149H117.693V103.758ZM113.123 100.928C113.123 102.123 112.988 103.266 112.719 104.355C112.455 105.439 112.051 106.412 111.506 107.273C110.961 108.129 110.29 108.8 109.493 109.286L108.289 107.836C109.027 107.385 109.646 106.793 110.144 106.061C110.642 105.328 111.011 104.525 111.251 103.652C111.497 102.779 111.62 101.871 111.62 100.928V98.0889H113.123V100.928ZM113.51 100.849C113.51 101.757 113.615 102.624 113.826 103.45C114.043 104.271 114.377 105.029 114.828 105.727C115.285 106.424 115.856 106.989 116.542 107.423L115.47 108.935C114.679 108.46 114.028 107.801 113.519 106.957C113.009 106.113 112.634 105.176 112.394 104.145C112.153 103.113 112.033 102.015 112.033 100.849V98.0889H113.51V100.849ZM122.255 112.547H120.374V96.6738H122.255V112.547ZM118.941 111.8H117.113V96.9463H118.941V111.8ZM129.032 109.348H127.107V104.795H129.032V109.348ZM134.912 109.348H132.943V104.795H134.912V109.348ZM138.269 110.64H123.749V109.031H138.269V110.64ZM130.983 97.5264C132.12 97.5264 133.133 97.7021 134.024 98.0537C134.92 98.3994 135.623 98.8916 136.133 99.5303C136.643 100.169 136.898 100.901 136.898 101.728C136.898 102.56 136.643 103.292 136.133 103.925C135.629 104.558 134.929 105.047 134.033 105.393C133.142 105.738 132.125 105.914 130.983 105.92C129.84 105.914 128.821 105.738 127.924 105.393C127.034 105.047 126.333 104.558 125.824 103.925C125.32 103.292 125.068 102.56 125.068 101.728C125.068 100.901 125.32 100.169 125.824 99.5303C126.333 98.8916 127.037 98.3994 127.933 98.0537C128.829 97.7021 129.846 97.5264 130.983 97.5264ZM130.983 99.0908C130.192 99.085 129.495 99.1875 128.891 99.3984C128.293 99.6094 127.825 99.9141 127.485 100.312C127.151 100.711 126.984 101.183 126.984 101.728C126.984 102.267 127.151 102.738 127.485 103.143C127.825 103.541 128.293 103.852 128.891 104.074C129.495 104.291 130.192 104.399 130.983 104.399C131.762 104.399 132.454 104.291 133.057 104.074C133.661 103.852 134.129 103.541 134.463 103.143C134.803 102.738 134.973 102.267 134.973 101.728C134.973 101.183 134.803 100.714 134.463 100.321C134.129 99.9229 133.661 99.6182 133.057 99.4072C132.459 99.1904 131.768 99.085 130.983 99.0908Z" fill="#7C7C7C"/>
<g clip-path="url(#clip2_123_6815)">
<rect width="185" height="185" rx="92.5" fill="#E6E6E6"/>
<path d="M50.0644 74.834C50.8613 74.834 51.5702 75.0654 52.1913 75.5283C52.8124 75.9854 53.3017 76.6387 53.6591 77.4883C54.0165 78.332 54.1952 79.3164 54.1952 80.4414C54.1952 81.5723 54.0165 82.5625 53.6591 83.4121C53.3017 84.2559 52.8095 84.9092 52.1825 85.3721C51.5614 85.835 50.8554 86.0664 50.0644 86.0664C49.2675 86.0664 48.5556 85.835 47.9286 85.3721C47.3017 84.9092 46.8124 84.2559 46.4609 83.4121C46.1093 82.5625 45.9335 81.5723 45.9335 80.4414C45.9335 79.3164 46.1093 78.332 46.4609 77.4883C46.8124 76.6387 47.3017 75.9854 47.9286 75.5283C48.5556 75.0654 49.2675 74.834 50.0644 74.834ZM50.0644 76.5918C49.6191 76.5859 49.2236 76.7383 48.8779 77.0488C48.538 77.3594 48.2743 77.8047 48.0868 78.3848C47.9052 78.959 47.8144 79.6445 47.8144 80.4414C47.8144 81.2383 47.9052 81.9297 48.0868 82.5156C48.2743 83.0957 48.5409 83.5381 48.8866 83.8428C49.2323 84.1416 49.6249 84.291 50.0644 84.291C50.5097 84.291 50.9023 84.1416 51.2421 83.8428C51.5878 83.5381 51.8515 83.0957 52.0331 82.5156C52.2148 81.9297 52.3056 81.2383 52.3056 80.4414C52.3056 79.6387 52.2148 78.9502 52.0331 78.376C51.8515 77.7959 51.5878 77.3535 51.2421 77.0488C50.9023 76.7383 50.5097 76.5859 50.0644 76.5918ZM58.2382 89.5469H56.287V73.6738H58.2382V89.5469ZM60.6904 81.4258H57.7988V79.7822H60.6904V81.4258ZM62.5452 84.3086C63.6585 84.3145 64.6516 84.2939 65.5247 84.2471C66.3977 84.1943 67.3089 84.0947 68.2581 83.9482L68.4075 85.5039C67.4173 85.6738 66.471 85.7881 65.5686 85.8467C64.6722 85.9053 63.6643 85.9346 62.5452 85.9346H61.4641V84.3086H62.5452ZM67.4583 81.2148H63.3538V84.915H61.4641V79.6416H65.5774V76.8818H61.4378V75.2822H67.4583V81.2148ZM74.6565 89.5469H72.8108V73.6738H74.6565V89.5469ZM73.2679 81.3555H70.4466V79.7822H73.2679V81.3555ZM71.0091 88.7646H69.2249V73.9727H71.0091V88.7646ZM81.3454 74.7637C82.1774 74.7637 82.9245 74.9277 83.5866 75.2559C84.2487 75.584 84.7672 76.041 85.1422 76.627C85.5172 77.207 85.7047 77.8691 85.7047 78.6133C85.7047 79.3574 85.5172 80.0225 85.1422 80.6084C84.7672 81.1885 84.2487 81.6426 83.5866 81.9707C82.9303 82.2988 82.1832 82.4629 81.3454 82.4629C80.525 82.4629 79.7809 82.2988 79.1129 81.9707C78.445 81.6426 77.9205 81.1885 77.5397 80.6084C77.1647 80.0225 76.9772 79.3574 76.9772 78.6133C76.9772 77.8691 77.1647 77.207 77.5397 76.627C77.9205 76.041 78.445 75.584 79.1129 75.2559C79.7809 74.9277 80.525 74.7637 81.3454 74.7637ZM81.3454 76.46C80.8825 76.46 80.4664 76.5479 80.0973 76.7236C79.7282 76.8994 79.4381 77.1514 79.2272 77.4795C79.0163 77.8018 78.9108 78.1797 78.9108 78.6133C78.9108 79.0469 79.0163 79.4248 79.2272 79.7471C79.4381 80.0693 79.7282 80.3213 80.0973 80.5029C80.4664 80.6787 80.8825 80.7666 81.3454 80.7666C81.82 80.7666 82.2418 80.6787 82.611 80.5029C82.9801 80.3213 83.2672 80.0693 83.4723 79.7471C83.6832 79.4248 83.7887 79.0469 83.7887 78.6133C83.7887 78.1797 83.6832 77.8018 83.4723 77.4795C83.2672 77.1514 82.9801 76.8994 82.611 76.7236C82.2418 76.5479 81.82 76.46 81.3454 76.46ZM89.4137 89.5908H87.4801V73.6738H89.4137V89.5908ZM76.2565 84.6602C77.5573 84.6543 78.735 84.6396 79.7897 84.6162C80.8444 84.5928 81.9664 84.5459 83.1559 84.4756C84.3454 84.3994 85.4674 84.2852 86.5221 84.1328L86.6715 85.5566C85.5758 85.7559 84.4391 85.9082 83.2614 86.0137C82.0836 86.1191 80.9762 86.1865 79.9391 86.2158C78.9079 86.2451 77.7623 86.2598 76.5026 86.2598L76.2565 84.6602ZM107.072 76.2139H97.0257V74.6406H107.072V76.2139ZM109.787 83.0078H95.3207V81.417H109.787V83.0078ZM103.477 89.582H101.508V82.5156H103.477V89.582ZM108.021 76.0557C108.021 76.835 108.009 77.5029 107.986 78.0596C107.968 78.6162 107.912 79.2607 107.819 79.9932C107.731 80.7256 107.59 81.5195 107.397 82.375L105.463 82.1553C105.657 81.3408 105.797 80.5791 105.885 79.8701C105.973 79.1553 106.026 78.5254 106.043 77.9805C106.061 77.4355 106.07 76.7939 106.07 76.0557V74.6406H108.021V76.0557ZM118.41 74.2275C118.41 75.1064 118.134 75.9062 117.584 76.627C117.033 77.3477 116.268 77.9453 115.29 78.4199C114.311 78.8887 113.183 79.2021 111.906 79.3604L111.256 77.8838C112.334 77.7607 113.292 77.5205 114.13 77.1631C114.967 76.7998 115.612 76.3633 116.063 75.8535C116.52 75.3379 116.749 74.7959 116.749 74.2275V73.7969H118.41V74.2275ZM118.761 74.2275C118.761 74.7959 118.987 75.3379 119.438 75.8535C119.895 76.3633 120.54 76.7998 121.372 77.1631C122.21 77.5205 123.171 77.7607 124.255 77.8838L123.578 79.3604C122.312 79.2021 121.187 78.8887 120.203 78.4199C119.218 77.9453 118.451 77.3477 117.9 76.627C117.349 75.9062 117.074 75.1064 117.074 74.2275V73.7969H118.761V74.2275ZM124.984 81.6807H110.517V80.0898H124.984V81.6807ZM123.191 86.7432H114.156V88.2988H112.222V85.3633H121.258V84.2646H112.214V82.7969H123.191V86.7432ZM123.622 89.4238H112.222V87.9297H123.622V89.4238ZM132.947 73.9287C134.149 73.9287 135.177 74.0312 136.032 74.2363C136.888 74.4414 137.538 74.749 137.983 75.1592C138.429 75.5635 138.651 76.0557 138.651 76.6357C138.651 77.2217 138.429 77.7197 137.983 78.1299C137.538 78.5342 136.888 78.8418 136.032 79.0527C135.177 79.2637 134.149 79.375 132.947 79.3867C131.734 79.375 130.7 79.2637 129.845 79.0527C128.989 78.8418 128.336 78.5342 127.885 78.1299C127.434 77.7197 127.208 77.2217 127.208 76.6357C127.208 76.0557 127.434 75.5635 127.885 75.1592C128.336 74.749 128.989 74.4414 129.845 74.2363C130.7 74.0312 131.734 73.9287 132.947 73.9287ZM132.947 75.3613C132.139 75.3613 131.459 75.4111 130.908 75.5107C130.357 75.6045 129.944 75.748 129.669 75.9414C129.394 76.1348 129.256 76.3662 129.256 76.6357C129.256 76.9346 129.391 77.1777 129.66 77.3652C129.93 77.5527 130.337 77.6934 130.882 77.7871C131.427 77.8809 132.115 77.9277 132.947 77.9277C133.785 77.9277 134.474 77.8809 135.013 77.7871C135.552 77.6934 135.959 77.5498 136.234 77.3564C136.51 77.1631 136.648 76.9229 136.648 76.6357C136.648 76.3662 136.507 76.1377 136.226 75.9502C135.944 75.7568 135.528 75.6104 134.978 75.5107C134.433 75.4111 133.756 75.3613 132.947 75.3613ZM140.181 81.8037H125.714V80.2393H140.181V81.8037ZM138.388 86.752H129.353V88.3428H127.419V85.3721H136.454V84.3086H127.41V82.8672H138.388V86.752ZM138.818 89.4238H127.419V87.9297H138.818V89.4238ZM59.7896 101.78H55.9488V100.181H59.7896V101.78ZM53.1451 99.4688C53.1451 100.535 52.9752 101.528 52.6354 102.448C52.2955 103.362 51.7975 104.162 51.1412 104.848C50.485 105.527 49.6852 106.046 48.7418 106.403L47.6959 104.848C48.5279 104.561 49.234 104.145 49.8141 103.6C50.3941 103.049 50.8307 102.419 51.1236 101.71C51.4225 101.001 51.5719 100.254 51.5719 99.4688V97.6582H53.1451V99.4688ZM53.5318 99.4951C53.5318 100.21 53.6725 100.896 53.9537 101.552C54.2408 102.208 54.6656 102.794 55.2281 103.31C55.7906 103.825 56.4674 104.224 57.2584 104.505L56.1861 106.017C55.2955 105.677 54.5338 105.185 53.901 104.54C53.274 103.89 52.7965 103.134 52.4684 102.272C52.1402 101.411 51.9762 100.485 51.9762 99.4951V97.6582H53.5318V99.4951ZM61.0641 108.478H59.1129V96.6914H61.0641V108.478ZM61.4068 112.266H50.5875V110.666H61.4068V112.266ZM52.5738 111.492H50.5875V107.203H52.5738V111.492ZM64.6152 104.065C65.9218 104.06 66.9853 104.03 67.8056 103.978C68.6259 103.925 69.4492 103.825 70.2754 103.679L70.4687 105.261C69.5839 105.419 68.7168 105.527 67.8671 105.586C67.0234 105.639 65.9394 105.665 64.6152 105.665H63.5605V104.065H64.6152ZM69.8007 99.3545H65.4326V104.936H63.5605V97.7637H69.8007V99.3545ZM69.6338 102.387H64.8613V100.893H69.6338V102.387ZM76.542 106.359H74.6787V96.6914H76.542V106.359ZM75.2236 102.229H72.499V100.664H75.2236V102.229ZM73.0175 106.254H71.207V96.9814H73.0175V106.254ZM76.542 112.547H74.6084V108.645H65.6611V107.071H76.542V112.547ZM85.8939 100.77H78.1243V99.2051H85.8939V100.77ZM82.0267 101.604C82.7005 101.604 83.2982 101.763 83.8196 102.079C84.347 102.39 84.7601 102.826 85.0589 103.389C85.3577 103.951 85.5071 104.593 85.5071 105.313C85.5071 106.034 85.3577 106.679 85.0589 107.247C84.7601 107.81 84.347 108.252 83.8196 108.574C83.2982 108.896 82.7005 109.058 82.0267 109.058C81.3646 109.058 80.7698 108.896 80.2425 108.574C79.721 108.252 79.3109 107.807 79.012 107.238C78.7132 106.67 78.5638 106.028 78.5638 105.313C78.5638 104.604 78.7132 103.966 79.012 103.397C79.3109 102.829 79.721 102.39 80.2425 102.079C80.7698 101.763 81.3646 101.604 82.0267 101.604ZM82.0267 103.23C81.6927 103.225 81.3939 103.31 81.1302 103.485C80.8665 103.661 80.6614 103.907 80.515 104.224C80.3685 104.534 80.2952 104.897 80.2952 105.313C80.2952 105.729 80.3685 106.096 80.515 106.412C80.6673 106.729 80.8724 106.969 81.1302 107.133C81.3939 107.297 81.6927 107.379 82.0267 107.379C82.3665 107.379 82.6683 107.297 82.932 107.133C83.1956 106.969 83.4036 106.729 83.556 106.412C83.7083 106.096 83.7845 105.729 83.7845 105.313C83.7845 104.897 83.7083 104.534 83.556 104.224C83.4036 103.907 83.1956 103.661 82.932 103.485C82.6683 103.31 82.3665 103.225 82.0267 103.23ZM91.8089 112.547H89.9456V96.6738H91.8089V112.547ZM90.5609 104.786H87.7747V103.213H90.5609V104.786ZM88.3988 111.835H86.5618V97.0166H88.3988V111.835ZM82.9935 100.181H81.0687V97.1309H82.9935V100.181ZM101.17 98.9238C101.17 99.8496 100.9 100.699 100.361 101.473C99.8278 102.246 99.0837 102.894 98.1286 103.415C97.1735 103.931 96.0778 104.282 94.8415 104.47L94.1032 102.94C95.1579 102.8 96.0925 102.527 96.9069 102.123C97.7214 101.719 98.3512 101.238 98.7966 100.682C99.2419 100.119 99.4645 99.5332 99.4645 98.9238V98.3789H101.17V98.9238ZM101.715 98.9238C101.715 99.5332 101.934 100.119 102.374 100.682C102.819 101.238 103.449 101.719 104.263 102.123C105.084 102.527 106.021 102.8 107.076 102.94L106.373 104.47C105.125 104.282 104.02 103.931 103.059 103.415C102.098 102.899 101.348 102.255 100.809 101.481C100.276 100.702 100.009 99.8496 100.009 98.9238V98.3789H101.715V98.9238ZM101.512 112.556H99.5876V106.632H101.512V112.556ZM107.823 107.106H93.3561V105.533H107.823V107.106ZM106.496 99.1084H94.6657V97.5703H106.496V99.1084ZM117.693 103.758H114.846V102.149H117.693V103.758ZM113.123 100.928C113.123 102.123 112.988 103.266 112.719 104.355C112.455 105.439 112.051 106.412 111.506 107.273C110.961 108.129 110.29 108.8 109.493 109.286L108.289 107.836C109.027 107.385 109.646 106.793 110.144 106.061C110.642 105.328 111.011 104.525 111.251 103.652C111.497 102.779 111.62 101.871 111.62 100.928V98.0889H113.123V100.928ZM113.51 100.849C113.51 101.757 113.615 102.624 113.826 103.45C114.043 104.271 114.377 105.029 114.828 105.727C115.285 106.424 115.856 106.989 116.542 107.423L115.47 108.935C114.679 108.46 114.028 107.801 113.519 106.957C113.009 106.113 112.634 105.176 112.394 104.145C112.153 103.113 112.033 102.015 112.033 100.849V98.0889H113.51V100.849ZM122.255 112.547H120.374V96.6738H122.255V112.547ZM118.941 111.8H117.113V96.9463H118.941V111.8ZM129.032 109.348H127.107V104.795H129.032V109.348ZM134.912 109.348H132.943V104.795H134.912V109.348ZM138.269 110.64H123.749V109.031H138.269V110.64ZM130.983 97.5264C132.12 97.5264 133.133 97.7021 134.024 98.0537C134.92 98.3994 135.623 98.8916 136.133 99.5303C136.643 100.169 136.898 100.901 136.898 101.728C136.898 102.56 136.643 103.292 136.133 103.925C135.629 104.558 134.929 105.047 134.033 105.393C133.142 105.738 132.125 105.914 130.983 105.92C129.84 105.914 128.821 105.738 127.924 105.393C127.034 105.047 126.333 104.558 125.824 103.925C125.32 103.292 125.068 102.56 125.068 101.728C125.068 100.901 125.32 100.169 125.824 99.5303C126.333 98.8916 127.037 98.3994 127.933 98.0537C128.829 97.7021 129.846 97.5264 130.983 97.5264ZM130.983 99.0908C130.192 99.085 129.495 99.1875 128.891 99.3984C128.293 99.6094 127.825 99.9141 127.485 100.312C127.151 100.711 126.984 101.183 126.984 101.728C126.984 102.267 127.151 102.738 127.485 103.143C127.825 103.541 128.293 103.852 128.891 104.074C129.495 104.291 130.192 104.399 130.983 104.399C131.762 104.399 132.454 104.291 133.057 104.074C133.661 103.852 134.129 103.541 134.463 103.143C134.803 102.738 134.973 102.267 134.973 101.728C134.973 101.183 134.803 100.714 134.463 100.321C134.129 99.9229 133.661 99.6182 133.057 99.4072C132.459 99.1904 131.768 99.085 130.983 99.0908Z" fill="#7C7C7C"/>
<rect width="185" height="185" rx="92.5" fill="#FFF782"/>
<ellipse cx="37.2129" cy="88.2471" rx="20.2011" ry="18.0747" fill="#FF7C68"/>
<ellipse cx="126.523" cy="113.764" rx="20.2011" ry="18.0747" fill="#FF7C68"/>
<path d="M74.4254 75.2906C73.3622 69.6201 66.345 60.6182 46.7817 69.9745" stroke="#2D2D29" stroke-width="10.6322" stroke-linecap="round"/>
<path d="M123.333 85.9229C122.27 80.2524 115.253 71.2505 95.6895 80.6068" stroke="#2D2D29" stroke-width="10.6322" stroke-linecap="round"/>
</g>
</g>
</g>
</g>
</g>
<defs>
<filter id="filter0_i_123_6815" x="0" y="0" width="185" height="189" filterUnits="userSpaceOnUse" color-interpolation-filters="sRGB">
<feFlood flood-opacity="0" result="BackgroundImageFix"/>
<feBlend mode="normal" in="SourceGraphic" in2="BackgroundImageFix" result="shape"/>
<feColorMatrix in="SourceAlpha" type="matrix" values="0 0 0 0 0 0 0 0 0 0 0 0 0 0 0 0 0 0 127 0" result="hardAlpha"/>
<feOffset dy="4"/>
<feGaussianBlur stdDeviation="22.5"/>
<feComposite in2="hardAlpha" operator="arithmetic" k2="-1" k3="1"/>
<feColorMatrix type="matrix" values="0 0 0 0 1 0 0 0 0 1 0 0 0 0 1 0 0 0 1 0"/>
<feBlend mode="normal" in2="shape" result="effect1_innerShadow_123_6815"/>
</filter>
<filter id="filter1_i_123_6815" x="0" y="0" width="185" height="189" filterUnits="userSpaceOnUse" color-interpolation-filters="sRGB">
<feFlood flood-opacity="0" result="BackgroundImageFix"/>
<feBlend mode="normal" in="SourceGraphic" in2="BackgroundImageFix" result="shape"/>
<feColorMatrix in="SourceAlpha" type="matrix" values="0 0 0 0 0 0 0 0 0 0 0 0 0 0 0 0 0 0 127 0" result="hardAlpha"/>
<feOffset dy="4"/>
<feGaussianBlur stdDeviation="22.5"/>
<feComposite in2="hardAlpha" operator="arithmetic" k2="-1" k3="1"/>
<feColorMatrix type="matrix" values="0 0 0 0 1 0 0 0 0 1 0 0 0 0 1 0 0 0 1 0"/>
<feBlend mode="normal" in2="shape" result="effect1_innerShadow_123_6815"/>
</filter>
<clipPath id="clip0_123_6815">
<rect width="185" height="185" rx="92.5" fill="white"/>
</clipPath>
<clipPath id="clip1_123_6815">
<rect width="185" height="185" rx="92.5" fill="white"/>
</clipPath>
<clipPath id="clip2_123_6815">
<rect width="185" height="185" rx="92.5" fill="white"/>
</clipPath>
</defs>
</svg>
