<svg width="185" height="185" viewBox="0 0 185 185" fill="none" xmlns="http://www.w3.org/2000/svg">
<g filter="url(#filter0_i_146_2735)">
<rect width="185" height="185" rx="92.5" fill="#85BEFF"/>
<path d="M102.312 64.1636C99.5474 62.8727 85.7239 59 80.1946 59C77.4299 77.0725 94.0181 79.6543 99.5475 77.0725C103.971 75.0071 103.234 67.606 102.312 64.1636Z" fill="#2D2D29"/>
<path d="M68.4259 70.3001C65.6612 69.0092 51.8377 65.1365 46.3084 65.1365C43.5437 83.209 60.1318 85.7908 65.6612 83.209C70.0847 81.1436 69.3475 73.7424 68.4259 70.3001Z" fill="#2D2D29"/>
<path d="M100.285 72.9939C102.124 77.2936 106.968 84.9642 111.63 81.2482C117.457 76.6033 101.309 64.3154 100.285 72.9939Z" fill="#FAFAF8"/>
<path d="M76.1507 90.6113C67.9984 89.7013 68.8718 97.0568 70.3276 100.848C71.2768 105.398 83.4295 101.986 93.6199 100.848C103.81 99.7109 86.3411 91.7487 76.1507 90.6113Z" fill="#2D2D29"/>
</g>
<defs>
<filter id="filter0_i_146_2735" x="0" y="0" width="185" height="189" filterUnits="userSpaceOnUse" color-interpolation-filters="sRGB">
<feFlood flood-opacity="0" result="BackgroundImageFix"/>
<feBlend mode="normal" in="SourceGraphic" in2="BackgroundImageFix" result="shape"/>
<feColorMatrix in="SourceAlpha" type="matrix" values="0 0 0 0 0 0 0 0 0 0 0 0 0 0 0 0 0 0 127 0" result="hardAlpha"/>
<feOffset dy="4"/>
<feGaussianBlur stdDeviation="22.5"/>
<feComposite in2="hardAlpha" operator="arithmetic" k2="-1" k3="1"/>
<feColorMatrix type="matrix" values="0 0 0 0 1 0 0 0 0 1 0 0 0 0 1 0 0 0 1 0"/>
<feBlend mode="normal" in2="shape" result="effect1_innerShadow_146_2735"/>
</filter>
</defs>
</svg>
